# 3ds Max Wavefront OBJ Exporter v0.99 - (c)2007 guruware
# File Created: 21.11.2023 17:59:06

mtllib babyface_Pinza_Izq_Sup.mtl

#
# object BF_pinzaL_arriba
#

v  -0.7168 0.2867 1.4254
v  -0.6769 0.5078 1.3400
v  -0.5377 0.7693 1.0413
v  -0.5824 0.4806 1.1372
v  -0.4639 0.5178 0.8832
v  -0.3970 0.8304 0.7397
v  -0.3599 0.4812 0.6602
v  -0.3059 0.7883 0.5443
v  -0.2898 0.4058 0.5099
v  -0.2128 0.7037 0.3446
v  -0.1922 0.2688 0.3005
v  -0.1171 0.5659 0.1394
v  -0.0983 0.1052 0.0991
v  -0.0381 0.4277 -0.0299
v  -0.0138 -0.0788 -0.0821
v  -0.0013 -0.0069 -0.1090
v  0.0445 -0.0324 -0.2071
v  0.0215 -0.1691 -0.1577
v  0.0234 0.2225 -0.1619
v  -0.0095 0.0684 -0.0914
v  -0.0398 0.0981 -0.0262
v  -0.0028 -0.0982 0.0062
v  -0.0016 -0.2397 0.0037
v  0.0643 -0.1691 -0.1377
v  0.0290 -0.0788 -0.0621
v  -0.1390 -0.1131 0.1864
v  -0.3067 -0.1839 0.5460
v  -0.3680 0.1036 0.6776
v  -0.4361 0.0482 0.8236
v  -0.5319 0.2000 1.0291
v  -0.6658 -0.0578 1.3161
v  -0.7476 0.1154 1.4916
v  -0.0445 -0.2397 -0.0163
v  -0.1138 -0.1928 0.1324
v  -0.0760 -0.0685 0.0514
v  -0.0456 -0.0982 -0.0138
v  -0.0717 0.0787 0.0421
v  -0.0842 0.0068 0.0690
v  -0.6739 0.2867 1.4454
v  -0.5395 0.4806 1.1572
v  -0.4948 0.7693 1.0613
v  -0.6341 0.5078 1.3600
v  -0.4211 0.5178 0.9031
v  -0.3542 0.8304 0.7596
v  -0.3171 0.4812 0.6802
v  -0.2631 0.7883 0.5643
v  -0.2470 0.4058 0.5298
v  -0.1700 0.7037 0.3646
v  -0.1494 0.2688 0.3205
v  -0.0743 0.5659 0.1594
v  -0.0554 0.1052 0.1190
v  0.0047 0.4277 -0.0099
v  0.0873 -0.0324 -0.1871
v  0.0416 -0.0069 -0.0890
v  0.0662 0.2225 -0.1419
v  0.0334 0.0684 -0.0714
v  0.0030 0.0981 -0.0062
v  -0.0962 -0.1131 0.2063
v  -0.2638 -0.1839 0.5659
v  -0.3252 0.1036 0.6975
v  -0.3933 0.0482 0.8436
v  -0.4891 0.2000 1.0491
v  -0.6230 -0.0578 1.3360
v  -0.7048 0.1154 1.5116
v  -0.0332 -0.0685 0.0714
v  -0.0710 -0.1928 0.1524
v  -0.0289 0.0787 0.0621
v  -0.0414 0.0068 0.0890
# 68 vertices

vn -0.9063 -0.0000 -0.4226
vn 0.9063 -0.0000 0.4226
vn -0.9063 0.0000 -0.4226
vn 0.9063 0.0000 0.4226
vn 0.1744 -0.9109 -0.3740
vn 0.4148 0.1921 -0.8894
vn 0.3446 0.5789 -0.7390
vn 0.2514 0.8039 -0.5391
vn 0.2197 0.8543 -0.4711
vn 0.1515 0.9335 -0.3250
vn 0.0810 0.9814 -0.1738
vn -0.0763 0.9835 0.1637
vn -0.2627 0.7834 0.5633
vn -0.2817 -0.7454 0.6041
vn 0.1373 -0.9457 -0.2945
vn -0.3772 -0.4509 0.8089
vn 0.0742 -0.9845 -0.1591
vn -0.3385 -0.5989 0.7258
vn -0.1163 -0.9614 0.2495
vn 0.3926 -0.3704 -0.8418
vn 0.3906 -0.3816 -0.8377
vn 0.1054 -0.9684 -0.2259
vn -0.1613 -0.9243 0.3459
vn -0.3906 0.3816 0.8377
vn 0.1613 0.9243 -0.3459
vn 0.4093 0.2493 -0.8777
vn -0.1053 0.9684 0.2259
vn -0.4093 -0.2493 0.8777
vn 0.2668 -0.7755 -0.5722
vn -0.2352 -0.8308 0.5044
vn -0.3888 0.3921 0.8337
# 31 vertex normals

vt 0.0217 0.2186 0.0000
vt 0.0481 0.1370 0.0000
vt 0.1568 0.0336 0.0000
vt 0.1285 0.1395 0.0000
vt 0.2268 0.1174 0.0000
vt 0.2731 0.0013 0.0000
vt 0.3154 0.1225 0.0000
vt 0.3510 0.0093 0.0000
vt 0.3767 0.1440 0.0000
vt 0.4319 0.0324 0.0000
vt 0.4631 0.1853 0.0000
vt 0.5167 0.0740 0.0000
vt 0.5473 0.2362 0.0000
vt 0.5875 0.1172 0.0000
vt 0.6241 0.2952 0.0000
vt 0.6324 0.2687 0.0000
vt 0.6717 0.2743 0.0000
vt 0.6567 0.3246 0.0000
vt 0.6458 0.1854 0.0000
vt 0.6231 0.2426 0.0000
vt 0.5966 0.2343 0.0000
vt 0.5980 0.4074 0.0000
vt 0.6035 0.3572 0.0000
vt 0.6567 0.3873 0.0000
vt 0.6241 0.4167 0.0000
vt 0.5201 0.3169 0.0000
vt 0.3814 0.3547 0.0000
vt 0.3206 0.2572 0.0000
vt 0.2652 0.2820 0.0000
vt 0.1798 0.2354 0.0000
vt 0.0756 0.3371 0.0000
vt 0.0013 0.2817 0.0000
vt 0.6035 0.3547 0.0000
vt 0.5437 0.3432 0.0000
vt 0.5715 0.2963 0.0000
vt 0.5980 0.3045 0.0000
vt 0.5705 0.2436 0.0000
vt 0.5622 0.2701 0.0000
vt 0.0217 0.4933 0.0000
vt 0.1285 0.5724 0.0000
vt 0.1568 0.6783 0.0000
vt 0.0481 0.5749 0.0000
vt 0.2268 0.5945 0.0000
vt 0.2731 0.7106 0.0000
vt 0.3154 0.5894 0.0000
vt 0.3510 0.7025 0.0000
vt 0.3767 0.5679 0.0000
vt 0.4319 0.6795 0.0000
vt 0.4631 0.5266 0.0000
vt 0.5167 0.6378 0.0000
vt 0.5473 0.4757 0.0000
vt 0.5875 0.5947 0.0000
vt 0.6717 0.4376 0.0000
vt 0.6324 0.4432 0.0000
vt 0.6458 0.5265 0.0000
vt 0.6231 0.4693 0.0000
vt 0.5966 0.4776 0.0000
vt 0.7524 0.7326 0.0000
vt 0.8135 0.7326 0.0000
vt 0.8135 0.7494 0.0000
vt 0.7524 0.7494 0.0000
vt 0.5201 0.3950 0.0000
vt 0.3814 0.3572 0.0000
vt 0.3206 0.4547 0.0000
vt 0.2652 0.4298 0.0000
vt 0.1798 0.4765 0.0000
vt 0.0756 0.3748 0.0000
vt 0.0013 0.4301 0.0000
vt 0.5715 0.4156 0.0000
vt 0.5437 0.3687 0.0000
vt 0.5705 0.4683 0.0000
vt 0.5622 0.4418 0.0000
vt 0.9463 0.7300 0.0000
vt 0.8536 0.7300 0.0000
vt 0.8536 0.7132 0.0000
vt 0.9463 0.7132 0.0000
vt 0.7639 0.7300 0.0000
vt 0.7639 0.7132 0.0000
vt 0.6811 0.7300 0.0000
vt 0.6811 0.7132 0.0000
vt 0.5865 0.7300 0.0000
vt 0.5865 0.7132 0.0000
vt 0.5024 0.7300 0.0000
vt 0.5024 0.7132 0.0000
vt 0.4241 0.7300 0.0000
vt 0.4241 0.7132 0.0000
vt 0.3034 0.7300 0.0000
vt 0.3034 0.7132 0.0000
vt 0.1534 0.7300 0.0000
vt 0.1534 0.7132 0.0000
vt 0.0013 0.7326 0.0000
vt 0.0939 0.7326 0.0000
vt 0.0939 0.7494 0.0000
vt 0.0013 0.7494 0.0000
vt 0.3368 0.7326 0.0000
vt 0.3976 0.7326 0.0000
vt 0.3976 0.7494 0.0000
vt 0.3368 0.7494 0.0000
vt 0.5124 0.7326 0.0000
vt 0.5124 0.7494 0.0000
vt 0.6561 0.7326 0.0000
vt 0.6561 0.7494 0.0000
vt 0.6916 0.7326 0.0000
vt 0.6916 0.7494 0.0000
vt 0.9987 0.7300 0.0000
vt 0.9987 0.7132 0.0000
vt 0.0845 0.7520 0.0000
vt 0.1123 0.7520 0.0000
vt 0.1123 0.7688 0.0000
vt 0.0845 0.7688 0.0000
vt 0.1400 0.7520 0.0000
vt 0.1400 0.7688 0.0000
vt 0.1678 0.7520 0.0000
vt 0.1678 0.7688 0.0000
vt 0.1955 0.7520 0.0000
vt 0.2233 0.7520 0.0000
vt 0.2233 0.7688 0.0000
vt 0.1955 0.7688 0.0000
vt 0.0290 0.7520 0.0000
vt 0.0568 0.7520 0.0000
vt 0.0568 0.7688 0.0000
vt 0.0290 0.7688 0.0000
vt 0.0013 0.7520 0.0000
vt 0.0013 0.7688 0.0000
vt 0.2395 0.7326 0.0000
vt 0.2395 0.7494 0.0000
vt 0.0677 0.7300 0.0000
vt 0.0013 0.7300 0.0000
vt 0.0013 0.7132 0.0000
vt 0.0677 0.7132 0.0000
# 130 texture coords

o BF_pinzaL_arriba
g BF_pinzaL_arriba
usemtl BF_03_Material
s off
f 1/1/1 2/2/1 3/3/1 
f 3/3/1 4/4/1 1/1/1 
f 5/5/1 4/4/1 3/3/1 
f 3/3/1 6/6/1 5/5/1 
f 7/7/1 5/5/1 6/6/1 
f 6/6/1 8/8/1 7/7/1 
f 9/9/1 7/7/1 8/8/1 
f 8/8/1 10/10/1 9/9/1 
f 11/11/1 9/9/1 10/10/1 
f 10/10/1 12/12/1 11/11/1 
f 13/13/1 11/11/1 12/12/1 
f 12/12/1 14/14/1 13/13/1 
f 15/15/1 16/16/1 17/17/1 
f 17/17/1 18/18/1 15/15/1 
f 19/19/1 17/17/1 16/16/1 
f 16/16/1 20/20/1 19/19/1 
f 19/19/1 20/20/1 21/21/1 
f 21/21/1 14/14/1 19/19/1 
f 22/22/2 23/23/2 24/24/2 
f 24/24/2 25/25/2 22/22/2 
f 26/26/1 27/27/1 11/11/1 
f 11/11/1 13/13/1 26/26/1 
f 27/27/1 28/28/1 9/9/1 
f 9/9/1 11/11/1 27/27/1 
f 28/28/1 29/29/1 7/7/1 
f 7/7/1 9/9/1 28/28/1 
f 29/29/1 30/30/1 5/5/1 
f 5/5/1 7/7/1 29/29/1 
f 30/30/1 31/31/1 4/4/1 
f 4/4/1 5/5/1 30/30/1 
f 32/32/1 1/1/1 4/4/1 
f 4/4/1 31/31/1 32/32/1 
f 33/33/3 34/34/3 35/35/3 
f 35/35/3 36/36/3 33/33/3 
f 14/14/1 21/21/1 37/37/1 
f 37/37/1 13/13/1 14/14/1 
f 26/26/1 13/13/1 37/37/1 
f 37/37/1 38/38/1 26/26/1 
f 38/38/1 35/35/1 34/34/1 
f 34/34/1 26/26/1 38/38/1 
f 39/39/4 40/40/4 41/41/4 
f 41/41/4 42/42/4 39/39/4 
f 43/43/2 44/44/2 41/41/2 
f 41/41/2 40/40/2 43/43/2 
f 45/45/2 46/46/2 44/44/2 
f 44/44/2 43/43/2 45/45/2 
f 47/47/4 48/48/4 46/46/4 
f 46/46/4 45/45/4 47/47/4 
f 49/49/4 50/50/4 48/48/4 
f 48/48/4 47/47/4 49/49/4 
f 51/51/4 52/52/4 50/50/4 
f 50/50/4 49/49/4 51/51/4 
f 25/25/4 24/24/4 53/53/4 
f 53/53/4 54/54/4 25/25/4 
f 55/55/4 56/56/4 54/54/4 
f 54/54/4 53/53/4 55/55/4 
f 55/55/4 52/52/4 57/57/4 
f 57/57/4 56/56/4 55/55/4 
f 33/58/5 18/59/5 24/60/5 
f 24/60/5 23/61/5 33/58/5 
f 58/62/4 51/51/4 49/49/4 
f 49/49/4 59/63/4 58/62/4 
f 59/63/4 49/49/4 47/47/4 
f 47/47/4 60/64/4 59/63/4 
f 60/64/4 47/47/4 45/45/4 
f 45/45/4 61/65/4 60/64/4 
f 61/65/4 45/45/4 43/43/4 
f 43/43/4 62/66/4 61/65/4 
f 62/66/4 43/43/4 40/40/4 
f 40/40/4 63/67/4 62/66/4 
f 64/68/2 63/67/2 40/40/2 
f 40/40/2 39/39/2 64/68/2 
f 23/23/2 22/22/2 65/69/2 
f 65/69/2 66/70/2 23/23/2 
f 52/52/4 51/51/4 67/71/4 
f 67/71/4 57/57/4 52/52/4 
f 58/62/4 68/72/4 67/71/4 
f 67/71/4 51/51/4 58/62/4 
f 68/72/4 58/62/4 66/70/4 
f 66/70/4 65/69/4 68/72/4 
f 17/73/6 19/74/6 55/75/6 
f 55/75/6 53/76/6 17/73/6 
f 19/74/7 14/77/7 52/78/7 
f 52/78/7 55/75/7 19/74/7 
f 14/77/8 12/79/8 50/80/8 
f 50/80/8 52/78/8 14/77/8 
f 12/79/9 10/81/9 48/82/9 
f 48/82/9 50/80/9 12/79/9 
f 10/81/10 8/83/10 46/84/10 
f 46/84/10 48/82/10 10/81/10 
f 8/83/11 6/85/11 44/86/11 
f 44/86/11 46/84/11 8/83/11 
f 6/85/12 3/87/12 41/88/12 
f 41/88/12 44/86/12 6/85/12 
f 3/87/13 2/89/13 42/90/13 
f 42/90/13 41/88/13 3/87/13 
f 32/91/14 31/92/14 63/93/14 
f 63/93/14 64/94/14 32/91/14 
f 29/95/15 28/96/15 60/97/15 
f 60/97/15 61/98/15 29/95/15 
f 28/96/16 27/99/16 59/100/16 
f 59/100/16 60/97/16 28/96/16 
f 27/99/17 26/101/17 58/102/17 
f 58/102/17 59/100/17 27/99/17 
f 26/101/18 34/103/18 66/104/18 
f 66/104/18 58/102/18 26/101/18 
f 34/103/19 33/58/19 23/61/19 
f 23/61/19 66/104/19 34/103/19 
f 18/105/20 17/73/20 53/76/20 
f 53/76/20 24/106/20 18/105/20 
f 38/107/21 37/108/21 67/109/21 
f 67/109/21 68/110/21 38/107/21 
f 37/108/22 21/111/22 57/112/22 
f 57/112/22 67/109/22 37/108/22 
f 21/111/23 20/113/23 56/114/23 
f 56/114/23 57/112/23 21/111/23 
f 16/115/24 15/116/24 25/117/24 
f 25/117/24 54/118/24 16/115/24 
f 36/119/25 35/120/25 65/121/25 
f 65/121/25 22/122/25 36/119/25 
f 35/120/26 38/107/26 68/110/26 
f 68/110/26 65/121/26 35/120/26 
f 15/123/27 36/119/27 22/122/27 
f 22/122/27 25/124/27 15/123/27 
f 20/113/28 16/115/28 54/118/28 
f 54/118/28 56/114/28 20/113/28 
f 31/92/29 30/125/29 62/126/29 
f 62/126/29 63/93/29 31/92/29 
f 30/125/30 29/95/30 61/98/30 
f 61/98/30 62/126/30 30/125/30 
f 1/127/31 32/128/31 64/129/31 
f 64/129/31 39/130/31 1/127/31 
f 2/89/31 1/127/31 39/130/31 
f 39/130/31 42/90/31 2/89/31 
f 36/36/3 15/15/3 18/18/3 
f 18/18/3 33/33/3 36/36/3 
# 136 faces

