# 3ds Max Wavefront OBJ Exporter v0.99 - (c)2007 guruware
# File Created: 20.11.2023 11:08:30

mtllib babyface_Ojo.mtl

#
# object BF_Eye
#

v  -0.0000 0.2372 0.0472
v  -0.0000 0.2372 -0.0472
v  -0.0908 0.2192 -0.0472
v  -0.0908 0.2192 0.0472
v  -0.0000 0.1344 0.2011
v  -0.0000 0.2011 0.1344
v  -0.0770 0.1858 0.1344
v  -0.0514 0.1241 0.2011
v  0.1241 0.0514 -0.2011
v  0.0950 0.0950 -0.2011
v  0.1422 0.1422 -0.1344
v  0.1858 0.0770 -0.1344
v  0.0334 0.0334 -0.2372
v  0.0181 0.0436 -0.2372
v  0.0514 0.1241 -0.2011
v  0.1677 0.1677 -0.0472
v  0.0908 0.2192 -0.0472
v  0.0908 0.2192 0.0472
v  0.1677 0.1677 0.0472
v  0.0770 0.1858 -0.1344
v  0.0770 0.1858 0.1344
v  0.0514 0.1241 0.2011
v  -0.0000 0.1344 -0.2011
v  -0.0000 0.2011 -0.1344
v  -0.0000 0.0472 -0.2372
v  0.2192 0.0908 -0.0472
v  0.1344 -0.0000 -0.2011
v  0.2011 -0.0000 -0.1344
v  -0.0000 0.0472 0.2372
v  0.0181 0.0436 0.2372
v  -0.0514 0.1241 -0.2011
v  -0.0770 0.1858 -0.1344
v  0.2192 0.0908 0.0472
v  -0.0000 -0.0000 0.2418
v  0.0472 -0.0000 0.2372
v  0.0436 0.0181 0.2372
v  0.0334 0.0334 0.2372
v  0.1241 0.0514 0.2011
v  0.0950 0.0950 0.2011
v  -0.0181 0.0436 -0.2372
v  0.1422 0.1422 0.1344
v  0.1858 0.0770 0.1344
v  0.2372 -0.0000 -0.0472
v  0.1241 -0.0514 -0.2011
v  0.1858 -0.0770 -0.1344
v  -0.0000 -0.0000 -0.2419
v  0.1344 -0.0000 0.2011
v  0.2372 -0.0000 0.0472
v  0.2011 -0.0000 0.1344
v  0.0436 0.0181 -0.2372
v  0.0950 -0.0950 -0.2011
v  0.1422 -0.1422 -0.1344
v  0.0472 -0.0000 -0.2372
v  0.1241 -0.0514 0.2011
v  0.0436 -0.0181 0.2372
v  0.0334 -0.0334 0.2372
v  0.2192 -0.0908 0.0472
v  0.1858 -0.0770 0.1344
v  0.2192 -0.0908 -0.0472
v  0.1677 -0.1677 0.0472
v  0.1422 -0.1422 0.1344
v  0.0436 -0.0181 -0.2372
v  0.1677 -0.1677 -0.0472
v  0.0950 -0.0950 0.2011
v  -0.0000 -0.1344 -0.2011
v  0.0514 -0.1241 -0.2011
v  0.0770 -0.1858 -0.1344
v  -0.0000 -0.2011 -0.1344
v  0.0334 -0.0334 -0.2372
v  0.0908 -0.2192 0.0472
v  0.0770 -0.1858 0.1344
v  0.0908 -0.2192 -0.0472
v  0.0514 -0.1241 0.2011
v  0.0181 -0.0436 0.2372
v  -0.0000 -0.0472 0.2372
v  -0.0514 -0.1241 -0.2011
v  -0.0770 -0.1858 -0.1344
v  -0.0000 -0.2372 0.0472
v  -0.0000 -0.2011 0.1344
v  0.0181 -0.0436 -0.2372
v  -0.0000 -0.2372 -0.0472
v  -0.0000 -0.1344 0.2011
v  -0.0950 -0.0950 -0.2011
v  -0.1422 -0.1422 -0.1344
v  -0.0000 -0.0472 -0.2372
v  -0.0908 -0.2192 -0.0472
v  -0.0908 -0.2192 0.0472
v  -0.0514 -0.1241 0.2011
v  -0.0181 -0.0436 0.2372
v  -0.0334 -0.0334 0.2372
v  -0.0770 -0.1858 0.1344
v  -0.1241 -0.0514 -0.2011
v  -0.1858 -0.0770 -0.1344
v  -0.0181 -0.0436 -0.2372
v  -0.1677 -0.1677 -0.0472
v  -0.1677 -0.1677 0.0472
v  -0.0950 -0.0950 0.2011
v  -0.1422 -0.1422 0.1344
v  -0.0334 -0.0334 -0.2372
v  -0.1344 -0.0000 -0.2011
v  -0.2011 -0.0000 -0.1344
v  -0.2192 -0.0908 -0.0472
v  -0.2192 -0.0908 0.0472
v  -0.1241 -0.0514 0.2011
v  -0.0436 -0.0181 0.2372
v  -0.0472 -0.0000 0.2372
v  -0.1858 -0.0770 0.1344
v  -0.1241 0.0514 -0.2011
v  -0.1858 0.0770 -0.1344
v  -0.1344 -0.0000 0.2011
v  -0.0436 -0.0181 -0.2372
v  -0.2372 -0.0000 -0.0472
v  -0.2372 -0.0000 0.0472
v  -0.2011 -0.0000 0.1344
v  -0.0472 -0.0000 -0.2372
v  -0.0950 0.0950 -0.2011
v  -0.1422 0.1422 -0.1344
v  -0.1241 0.0514 0.2011
v  -0.0436 0.0181 0.2372
v  -0.0334 0.0334 0.2372
v  -0.2192 0.0908 -0.0472
v  -0.2192 0.0908 0.0472
v  -0.1858 0.0770 0.1344
v  -0.0436 0.0181 -0.2372
v  -0.1677 0.1677 -0.0472
v  -0.1677 0.1677 0.0472
v  -0.1422 0.1422 0.1344
v  -0.0950 0.0950 0.2011
v  -0.0334 0.0334 -0.2372
v  -0.0181 0.0436 0.2372
v  0.0908 0.1311 0.1818
v  -0.0000 0.1445 0.1939
v  -0.0000 0.1625 0.2636
v  0.0908 0.1491 0.2515
v  -0.0908 0.1311 0.1818
v  -0.0908 0.1491 0.2515
v  0.1677 0.0929 0.1474
v  0.1677 0.1109 0.2170
v  -0.1677 0.0929 0.1474
v  -0.1677 0.1109 0.2170
v  0.0908 0.1271 0.1829
v  0.0908 0.1451 0.2525
v  -0.0000 0.1585 0.2646
v  -0.0000 0.1405 0.1950
v  -0.0908 0.1451 0.2525
v  -0.0908 0.1271 0.1829
v  0.1677 0.0889 0.1484
v  0.1677 0.1069 0.2180
v  -0.1677 0.1069 0.2180
v  -0.1677 0.0889 0.1484
# 150 vertices

vn 0.0000 0.9817 0.1906
vn 0.0000 0.9817 -0.1906
vn -0.3757 0.9069 -0.1906
vn -0.3757 0.9069 0.1906
vn 0.0000 0.5719 0.8203
vn 0.0000 0.8386 0.5446
vn -0.3209 0.7748 0.5446
vn -0.2188 0.5284 0.8203
vn 0.5284 0.2188 -0.8203
vn 0.4044 0.4044 -0.8203
vn 0.5930 0.5930 -0.5446
vn 0.7748 0.3209 -0.5446
vn 0.1817 0.1817 -0.9664
vn 0.0995 0.2403 -0.9656
vn 0.2188 0.5284 -0.8203
vn 0.6941 0.6941 -0.1906
vn 0.3757 0.9069 -0.1906
vn 0.3757 0.9069 0.1906
vn 0.6941 0.6941 0.1906
vn 0.3209 0.7748 -0.5446
vn 0.3209 0.7748 0.5446
vn 0.2188 0.5284 0.8203
vn -0.0000 0.5719 -0.8203
vn 0.0000 0.8386 -0.5446
vn -0.0000 0.2569 -0.9664
vn 0.9069 0.3757 -0.1906
vn 0.5719 0.0000 -0.8203
vn 0.8386 0.0000 -0.5446
vn 0.0000 0.2569 0.9664
vn 0.0995 0.2403 0.9656
vn -0.2188 0.5284 -0.8203
vn -0.3209 0.7748 -0.5446
vn 0.9069 0.3757 0.1906
vn 0.0000 -0.0000 1.0000
vn 0.2569 -0.0000 0.9664
vn 0.2403 0.0995 0.9656
vn 0.1817 0.1817 0.9664
vn 0.5284 0.2188 0.8203
vn 0.4044 0.4044 0.8203
vn -0.0995 0.2403 -0.9656
vn 0.5930 0.5930 0.5446
vn 0.7748 0.3209 0.5446
vn 0.9817 0.0000 -0.1906
vn 0.5284 -0.2188 -0.8203
vn 0.7748 -0.3209 -0.5446
vn -0.0000 0.0000 -1.0000
vn 0.5719 -0.0000 0.8203
vn 0.9817 -0.0000 0.1906
vn 0.8386 -0.0000 0.5446
vn 0.2403 0.0995 -0.9656
vn 0.4044 -0.4044 -0.8203
vn 0.5930 -0.5930 -0.5446
vn 0.2569 0.0000 -0.9664
vn 0.5284 -0.2188 0.8203
vn 0.2403 -0.0995 0.9656
vn 0.1817 -0.1817 0.9664
vn 0.9069 -0.3757 0.1906
vn 0.7748 -0.3209 0.5446
vn 0.9069 -0.3757 -0.1906
vn 0.6941 -0.6941 0.1906
vn 0.5930 -0.5930 0.5446
vn 0.2403 -0.0995 -0.9656
vn 0.6941 -0.6941 -0.1906
vn 0.4044 -0.4044 0.8203
vn -0.0000 -0.5719 -0.8203
vn 0.2188 -0.5284 -0.8203
vn 0.3209 -0.7748 -0.5446
vn -0.0000 -0.8386 -0.5446
vn 0.1817 -0.1817 -0.9664
vn 0.3757 -0.9069 0.1906
vn 0.3209 -0.7748 0.5446
vn 0.3757 -0.9069 -0.1906
vn 0.2188 -0.5284 0.8203
vn 0.0995 -0.2403 0.9656
vn 0.0000 -0.2569 0.9664
vn -0.2188 -0.5284 -0.8203
vn -0.3209 -0.7748 -0.5446
vn -0.0000 -0.9817 0.1906
vn -0.0000 -0.8386 0.5446
vn 0.0995 -0.2403 -0.9656
vn -0.0000 -0.9817 -0.1906
vn 0.0000 -0.5719 0.8203
vn -0.4044 -0.4044 -0.8203
vn -0.5930 -0.5930 -0.5446
vn -0.0000 -0.2569 -0.9664
vn -0.3757 -0.9069 -0.1906
vn -0.3757 -0.9069 0.1906
vn -0.2188 -0.5284 0.8203
vn -0.0995 -0.2403 0.9656
vn -0.1817 -0.1817 0.9664
vn -0.3209 -0.7748 0.5446
vn -0.5284 -0.2188 -0.8203
vn -0.7748 -0.3209 -0.5446
vn -0.0995 -0.2403 -0.9656
vn -0.6941 -0.6941 -0.1906
vn -0.6941 -0.6941 0.1906
vn -0.4044 -0.4044 0.8203
vn -0.5930 -0.5930 0.5446
vn -0.1817 -0.1817 -0.9664
vn -0.5719 0.0000 -0.8203
vn -0.8386 0.0000 -0.5446
vn -0.9069 -0.3757 -0.1906
vn -0.9069 -0.3757 0.1906
vn -0.5284 -0.2188 0.8203
vn -0.2403 -0.0995 0.9656
vn -0.2569 -0.0000 0.9664
vn -0.7748 -0.3209 0.5446
vn -0.5284 0.2188 -0.8203
vn -0.7748 0.3209 -0.5446
vn -0.5719 -0.0000 0.8203
vn -0.2403 -0.0995 -0.9656
vn -0.9817 0.0000 -0.1906
vn -0.9817 -0.0000 0.1906
vn -0.8386 -0.0000 0.5446
vn -0.2569 0.0000 -0.9664
vn -0.4044 0.4044 -0.8203
vn -0.5930 0.5930 -0.5446
vn -0.5284 0.2188 0.8203
vn -0.2403 0.0995 0.9656
vn -0.1817 0.1817 0.9664
vn -0.9069 0.3757 -0.1906
vn -0.9069 0.3757 0.1906
vn -0.7748 0.3209 0.5446
vn -0.2403 0.0995 -0.9656
vn -0.6941 0.6941 -0.1906
vn -0.6941 0.6941 0.1906
vn -0.5930 0.5930 0.5446
vn -0.4044 0.4044 0.8203
vn -0.1817 0.1817 -0.9664
vn -0.0995 0.2403 0.9656
vn 0.2513 0.9372 -0.2417
vn 0.0000 0.9683 -0.2498
vn 0.0000 0.8533 0.5214
vn 0.3500 0.8059 0.4774
vn -0.2513 0.9372 -0.2417
vn -0.3500 0.8059 0.4774
vn 0.8855 0.4499 -0.1160
vn 0.7839 0.5580 0.2724
vn -0.8855 0.4499 -0.1160
vn -0.7839 0.5580 0.2724
vn -0.2513 -0.9372 0.2417
vn 0.1414 -0.4522 0.8806
vn 0.0000 -0.4341 0.9009
vn -0.0000 -0.9683 0.2498
vn -0.1414 -0.4522 0.8806
vn 0.2513 -0.9372 0.2417
vn 0.7598 -0.6295 0.1624
vn 0.5535 -0.5971 0.5806
vn -0.5535 -0.5971 0.5806
vn -0.7598 -0.6295 0.1624
# 150 vertex normals

vt 0.4984 0.3076 0.0000
vt 0.6002 0.3257 0.0000
vt 0.5439 0.4332 0.0000
vt 0.4665 0.3787 0.0000
vt 0.3715 0.2845 0.0000
vt 0.4275 0.2950 0.0000
vt 0.4083 0.3408 0.0000
vt 0.3614 0.3100 0.0000
vt 0.2565 0.8559 0.0000
vt 0.2873 0.8428 0.0000
vt 0.3240 0.8979 0.0000
vt 0.2694 0.9203 0.0000
vt 0.2539 0.7948 0.0000
vt 0.2613 0.7871 0.0000
vt 0.3107 0.8189 0.0000
vt 0.5298 0.1072 0.0000
vt 0.5844 0.2054 0.0000
vt 0.4930 0.2299 0.0000
vt 0.4585 0.1619 0.0000
vt 0.3665 0.8562 0.0000
vt 0.4346 0.9035 0.0000
vt 0.3676 0.9661 0.0000
vt 0.4253 0.2454 0.0000
vt 0.3704 0.2571 0.0000
vt 0.3230 0.7880 0.0000
vt 0.3896 0.8007 0.0000
vt 0.2650 0.7773 0.0000
vt 0.2841 0.9988 0.0000
vt 0.2231 0.8564 0.0000
vt 0.2107 0.9207 0.0000
vt 0.3227 0.2759 0.0000
vt 0.3224 0.2673 0.0000
vt 0.4742 0.8171 0.0000
vt 0.3227 0.7546 0.0000
vt 0.3887 0.7405 0.0000
vt 0.4478 0.0375 0.0000
vt 0.4026 0.1124 0.0000
vt 0.3002 0.2723 0.0000
vt 0.3037 0.2505 0.0000
vt 0.3121 0.2537 0.0000
vt 0.3186 0.2595 0.0000
vt 0.3380 0.2135 0.0000
vt 0.3586 0.2321 0.0000
vt 0.2648 0.7668 0.0000
vt 0.4038 0.2009 0.0000
vt 0.3674 0.1680 0.0000
vt 0.1953 0.9988 0.0000
vt 0.1920 0.8443 0.0000
vt 0.1560 0.8993 0.0000
vt 0.2381 0.7728 0.0000
vt 0.3119 0.2037 0.0000
vt 0.3336 0.0866 0.0000
vt 0.3216 0.1508 0.0000
vt 0.3487 0.0012 0.0000
vt 0.2442 0.7990 0.0000
vt 0.1676 0.8214 0.0000
vt 0.1129 0.8589 0.0000
vt 0.2336 0.7993 0.0000
vt 0.2840 0.2043 0.0000
vt 0.2948 0.2509 0.0000
vt 0.2868 0.2544 0.0000
vt 0.2599 0.0870 0.0000
vt 0.2728 0.1514 0.0000
vt 0.2433 0.0012 0.0000
vt 0.1126 0.9665 0.0000
vt 0.1905 0.1143 0.0000
vt 0.2275 0.1700 0.0000
vt 0.2236 0.7955 0.0000
vt 0.1424 0.0384 0.0000
vt 0.2585 0.2152 0.0000
vt 0.0466 0.9056 0.0000
vt 0.1528 0.7576 0.0000
vt 0.1538 0.7910 0.0000
vt 0.0880 0.8048 0.0000
vt 0.0860 0.7447 0.0000
vt 0.2159 0.7883 0.0000
vt 0.1349 0.1663 0.0000
vt 0.1925 0.2044 0.0000
vt 0.0575 0.1119 0.0000
vt 0.2391 0.2348 0.0000
vt 0.2806 0.2608 0.0000
vt 0.2777 0.2688 0.0000
vt 0.1652 0.7265 0.0000
vt 0.1093 0.6891 0.0000
vt 0.0069 0.8229 0.0000
vt 0.1031 0.2375 0.0000
vt 0.1735 0.2495 0.0000
vt 0.2114 0.7787 0.0000
vt 0.0012 0.2193 0.0000
vt 0.2290 0.2602 0.0000
vt 0.1888 0.7026 0.0000
vt 0.1520 0.6473 0.0000
vt 0.2112 0.7683 0.0000
vt 0.0012 0.7279 0.0000
vt 0.0169 0.3395 0.0000
vt 0.1081 0.3152 0.0000
vt 0.2300 0.2875 0.0000
vt 0.2779 0.2773 0.0000
vt 0.2818 0.2852 0.0000
vt 0.1753 0.2988 0.0000
vt 0.0412 0.6415 0.0000
vt 0.2196 0.6895 0.0000
vt 0.2068 0.6249 0.0000
vt 0.2149 0.7585 0.0000
vt 0.0712 0.4378 0.0000
vt 0.1425 0.3831 0.0000
vt 0.2417 0.3124 0.0000
vt 0.1964 0.3433 0.0000
vt 0.2222 0.7508 0.0000
vt 0.1084 0.5789 0.0000
vt 0.2531 0.6890 0.0000
vt 0.2656 0.6245 0.0000
vt 0.1532 0.5075 0.0000
vt 0.1984 0.4325 0.0000
vt 0.2622 0.3311 0.0000
vt 0.2882 0.2910 0.0000
vt 0.2966 0.2942 0.0000
vt 0.2326 0.3765 0.0000
vt 0.1921 0.5462 0.0000
vt 0.2844 0.7011 0.0000
vt 0.3204 0.6459 0.0000
vt 0.2883 0.3410 0.0000
vt 0.2320 0.7465 0.0000
vt 0.2522 0.5438 0.0000
vt 0.2674 0.4583 0.0000
vt 0.2783 0.3939 0.0000
vt 0.2426 0.7462 0.0000
vt 0.2810 0.5463 0.0000
vt 0.3088 0.7240 0.0000
vt 0.3636 0.6863 0.0000
vt 0.3162 0.3405 0.0000
vt 0.3056 0.2938 0.0000
vt 0.3136 0.2903 0.0000
vt 0.3578 0.5438 0.0000
vt 0.3412 0.4579 0.0000
vt 0.3272 0.3936 0.0000
vt 0.3639 0.5786 0.0000
vt 0.2526 0.7500 0.0000
vt 0.4588 0.5067 0.0000
vt 0.4107 0.4307 0.0000
vt 0.3728 0.3752 0.0000
vt 0.3419 0.3297 0.0000
vt 0.4299 0.6396 0.0000
vt 0.2604 0.7572 0.0000
vt 0.3197 0.2839 0.0000
vt 0.4696 0.7222 0.0000
vt 0.6793 0.6128 0.0000
vt 0.6094 0.6013 0.0000
vt 0.6094 0.5462 0.0000
vt 0.6793 0.5578 0.0000
vt 0.5394 0.6128 0.0000
vt 0.5394 0.5578 0.0000
vt 0.7421 0.6457 0.0000
vt 0.7421 0.5906 0.0000
vt 0.4766 0.6457 0.0000
vt 0.4766 0.5906 0.0000
# 156 texture coords

o BF_Eye
g BF_Eye
usemtl BF_02_Material
s off
f 1/1/1 2/2/2 3/3/3 
f 3/3/3 4/4/4 1/1/1 
f 5/5/5 6/6/6 7/7/7 
f 7/7/7 8/8/8 5/5/5 
f 9/9/9 10/10/10 11/11/11 
f 11/11/11 12/12/12 9/9/9 
f 13/13/13 14/14/14 15/15/15 
f 15/15/15 10/10/10 13/13/13 
f 16/16/16 17/17/17 18/18/18 
f 18/18/18 19/19/19 16/16/16 
f 11/11/11 20/20/20 17/21/17 
f 17/21/17 16/22/16 11/11/11 
f 10/10/10 15/15/15 20/20/20 
f 20/20/20 11/11/11 10/10/10 
f 21/23/21 6/6/6 5/5/5 
f 5/5/5 22/24/22 21/23/21 
f 15/15/15 23/25/23 24/26/24 
f 24/26/24 20/20/20 15/15/15 
f 18/18/18 1/1/1 6/6/6 
f 6/6/6 21/23/21 18/18/18 
f 14/14/14 25/27/25 23/25/23 
f 23/25/23 15/15/15 14/14/14 
f 17/17/17 2/2/2 1/1/1 
f 1/1/1 18/18/18 17/17/17 
f 12/12/12 11/11/11 16/22/16 
f 16/22/16 26/28/26 12/12/12 
f 27/29/27 9/9/9 12/12/12 
f 12/12/12 28/30/28 27/29/27 
f 22/24/22 5/5/5 29/31/29 
f 29/31/29 30/32/30 22/24/22 
f 20/20/20 24/26/24 2/33/2 
f 2/33/2 17/21/17 20/20/20 
f 24/26/24 23/25/23 31/34/31 
f 31/34/31 32/35/32 24/26/24 
f 26/36/26 16/16/16 19/19/19 
f 19/19/19 33/37/33 26/36/26 
f 34/38/34 35/39/35 36/40/36 
f 36/40/36 37/41/37 34/38/34 
f 38/42/38 39/43/39 37/41/37 
f 37/41/37 36/40/36 38/42/38 
f 23/25/23 25/27/25 40/44/40 
f 40/44/40 31/34/31 23/25/23 
f 33/37/33 19/19/19 41/45/41 
f 41/45/41 42/46/42 33/37/33 
f 42/46/42 41/45/41 39/43/39 
f 39/43/39 38/42/38 42/46/42 
f 28/30/28 12/12/12 26/28/26 
f 26/28/26 43/47/43 28/30/28 
f 44/48/44 27/29/27 28/30/28 
f 28/30/28 45/49/45 44/48/44 
f 13/13/13 46/50/46 25/27/25 
f 25/27/25 14/14/14 13/13/13 
f 47/51/47 38/42/38 36/40/36 
f 36/40/36 35/39/35 47/51/47 
f 48/52/48 33/37/33 42/46/42 
f 42/46/42 49/53/49 48/52/48 
f 43/54/43 26/36/26 33/37/33 
f 33/37/33 48/52/48 43/54/43 
f 50/55/50 13/13/13 10/10/10 
f 10/10/10 9/9/9 50/55/50 
f 49/53/49 42/46/42 38/42/38 
f 38/42/38 47/51/47 49/53/49 
f 51/56/51 44/48/44 45/49/45 
f 45/49/45 52/57/52 51/56/51 
f 53/58/53 46/50/46 13/13/13 
f 13/13/13 50/55/50 53/58/53 
f 54/59/54 47/51/47 35/39/35 
f 35/39/35 55/60/55 54/59/54 
f 34/38/34 56/61/56 55/60/55 
f 55/60/55 35/39/35 34/38/34 
f 57/62/57 48/52/48 49/53/49 
f 49/53/49 58/63/58 57/62/57 
f 53/58/53 50/55/50 9/9/9 
f 9/9/9 27/29/27 53/58/53 
f 59/64/59 43/54/43 48/52/48 
f 48/52/48 57/62/57 59/64/59 
f 45/49/45 28/30/28 43/47/43 
f 43/47/43 59/65/59 45/49/45 
f 58/63/58 49/53/49 47/51/47 
f 47/51/47 54/59/54 58/63/58 
f 60/66/60 57/62/57 58/63/58 
f 58/63/58 61/67/61 60/66/60 
f 62/68/62 53/58/53 27/29/27 
f 27/29/27 44/48/44 62/68/62 
f 63/69/63 59/64/59 57/62/57 
f 57/62/57 60/66/60 63/69/63 
f 64/70/64 54/59/54 55/60/55 
f 55/60/55 56/61/56 64/70/64 
f 52/57/52 45/49/45 59/65/59 
f 59/65/59 63/71/63 52/57/52 
f 65/72/65 66/73/66 67/74/67 
f 67/74/67 68/75/68 65/72/65 
f 69/76/69 46/50/46 53/58/53 
f 53/58/53 62/68/62 69/76/69 
f 61/67/61 58/63/58 54/59/54 
f 54/59/54 64/70/64 61/67/61 
f 70/77/70 60/66/60 61/67/61 
f 61/67/61 71/78/71 70/77/70 
f 69/76/69 62/68/62 44/48/44 
f 44/48/44 51/56/51 69/76/69 
f 72/79/72 63/69/63 60/66/60 
f 60/66/60 70/77/70 72/79/72 
f 73/80/73 64/70/64 56/61/56 
f 56/61/56 74/81/74 73/80/73 
f 34/38/34 75/82/75 74/81/74 
f 74/81/74 56/61/56 34/38/34 
f 76/83/76 65/72/65 68/75/68 
f 68/75/68 77/84/77 76/83/76 
f 67/74/67 52/57/52 63/71/63 
f 63/71/63 72/85/72 67/74/67 
f 71/78/71 61/67/61 64/70/64 
f 64/70/64 73/80/73 71/78/71 
f 78/86/78 70/77/70 71/78/71 
f 71/78/71 79/87/79 78/86/78 
f 80/88/80 69/76/69 51/56/51 
f 51/56/51 66/73/66 80/88/80 
f 81/89/81 72/79/72 70/77/70 
f 70/77/70 78/86/78 81/89/81 
f 66/73/66 51/56/51 52/57/52 
f 52/57/52 67/74/67 66/73/66 
f 82/90/82 73/80/73 74/81/74 
f 74/81/74 75/82/75 82/90/82 
f 83/91/83 76/83/76 77/84/77 
f 77/84/77 84/92/84 83/91/83 
f 85/93/85 46/50/46 69/76/69 
f 69/76/69 80/88/80 85/93/85 
f 68/75/68 67/74/67 72/85/72 
f 72/85/72 81/94/81 68/75/68 
f 79/87/79 71/78/71 73/80/73 
f 73/80/73 82/90/82 79/87/79 
f 85/93/85 80/88/80 66/73/66 
f 66/73/66 65/72/65 85/93/85 
f 86/95/86 81/89/81 78/86/78 
f 78/86/78 87/96/87 86/95/86 
f 88/97/88 82/90/82 75/82/75 
f 75/82/75 89/98/89 88/97/88 
f 34/38/34 90/99/90 89/98/89 
f 89/98/89 75/82/75 34/38/34 
f 87/96/87 78/86/78 79/87/79 
f 79/87/79 91/100/91 87/96/87 
f 77/84/77 68/75/68 81/94/81 
f 81/94/81 86/101/86 77/84/77 
f 91/100/91 79/87/79 82/90/82 
f 82/90/82 88/97/88 91/100/91 
f 92/102/92 83/91/83 84/92/84 
f 84/92/84 93/103/93 92/102/92 
f 94/104/94 85/93/85 65/72/65 
f 65/72/65 76/83/76 94/104/94 
f 95/105/95 86/95/86 87/96/87 
f 87/96/87 96/106/96 95/105/95 
f 97/107/97 88/97/88 89/98/89 
f 89/98/89 90/99/90 97/107/97 
f 96/106/96 87/96/87 91/100/91 
f 91/100/91 98/108/98 96/106/96 
f 99/109/99 46/50/46 85/93/85 
f 85/93/85 94/104/94 99/109/99 
f 84/92/84 77/84/77 86/101/86 
f 86/101/86 95/110/95 84/92/84 
f 98/108/98 91/100/91 88/97/88 
f 88/97/88 97/107/97 98/108/98 
f 100/111/100 92/102/92 93/103/93 
f 93/103/93 101/112/101 100/111/100 
f 102/113/102 95/105/95 96/106/96 
f 96/106/96 103/114/103 102/113/102 
f 104/115/104 97/107/97 90/99/90 
f 90/99/90 105/116/105 104/115/104 
f 34/38/34 106/117/106 105/116/105 
f 105/116/105 90/99/90 34/38/34 
f 99/109/99 94/104/94 76/83/76 
f 76/83/76 83/91/83 99/109/99 
f 103/114/103 96/106/96 98/108/98 
f 98/108/98 107/118/107 103/114/103 
f 93/103/93 84/92/84 95/110/95 
f 95/110/95 102/119/102 93/103/93 
f 107/118/107 98/108/98 97/107/97 
f 97/107/97 104/115/104 107/118/107 
f 108/120/108 100/111/100 101/112/101 
f 101/112/101 109/121/109 108/120/108 
f 110/122/110 104/115/104 105/116/105 
f 105/116/105 106/117/106 110/122/110 
f 111/123/111 99/109/99 83/91/83 
f 83/91/83 92/102/92 111/123/111 
f 112/124/112 102/113/102 103/114/103 
f 103/114/103 113/125/113 112/124/112 
f 113/125/113 103/114/103 107/118/107 
f 107/118/107 114/126/114 113/125/113 
f 115/127/115 46/50/46 99/109/99 
f 99/109/99 111/123/111 115/127/115 
f 101/112/101 93/103/93 102/119/102 
f 102/119/102 112/128/112 101/112/101 
f 114/126/114 107/118/107 104/115/104 
f 104/115/104 110/122/110 114/126/114 
f 116/129/116 108/120/108 109/121/109 
f 109/121/109 117/130/117 116/129/116 
f 115/127/115 111/123/111 92/102/92 
f 92/102/92 100/111/100 115/127/115 
f 118/131/118 110/122/110 106/117/106 
f 106/117/106 119/132/119 118/131/118 
f 34/38/34 120/133/120 119/132/119 
f 119/132/119 106/117/106 34/38/34 
f 121/134/121 112/124/112 113/125/113 
f 113/125/113 122/135/122 121/134/121 
f 122/135/122 113/125/113 114/126/114 
f 114/126/114 123/136/123 122/135/122 
f 109/121/109 101/112/101 112/128/112 
f 112/128/112 121/137/121 109/121/109 
f 123/136/123 114/126/114 110/122/110 
f 110/122/110 118/131/118 123/136/123 
f 31/34/31 116/129/116 117/130/117 
f 117/130/117 32/35/32 31/34/31 
f 124/138/124 115/127/115 100/111/100 
f 100/111/100 108/120/108 124/138/124 
f 125/139/125 121/134/121 122/135/122 
f 122/135/122 126/140/126 125/139/125 
f 126/140/126 122/135/122 123/136/123 
f 123/136/123 127/141/127 126/140/126 
f 128/142/128 118/131/118 119/132/119 
f 119/132/119 120/133/120 128/142/128 
f 117/130/117 109/121/109 121/137/121 
f 121/137/121 125/143/125 117/130/117 
f 127/141/127 123/136/123 118/131/118 
f 118/131/118 128/142/128 127/141/127 
f 129/144/129 46/50/46 115/127/115 
f 115/127/115 124/138/124 129/144/129 
f 129/144/129 124/138/124 108/120/108 
f 108/120/108 116/129/116 129/144/129 
f 3/3/3 125/139/125 126/140/126 
f 126/140/126 4/4/4 3/3/3 
f 34/38/34 29/31/29 130/145/130 
f 130/145/130 120/133/120 34/38/34 
f 4/4/4 126/140/126 127/141/127 
f 127/141/127 7/7/7 4/4/4 
f 8/8/8 128/142/128 120/133/120 
f 120/133/120 130/145/130 8/8/8 
f 32/35/32 117/130/117 125/143/125 
f 125/143/125 3/146/3 32/35/32 
f 7/7/7 127/141/127 128/142/128 
f 128/142/128 8/8/8 7/7/7 
f 40/44/40 129/144/129 116/129/116 
f 116/129/116 31/34/31 40/44/40 
f 29/31/29 5/5/5 8/8/8 
f 8/8/8 130/145/130 29/31/29 
f 46/50/46 129/144/129 40/44/40 
f 40/44/40 25/27/25 46/50/46 
f 6/6/6 1/1/1 4/4/4 
f 4/4/4 7/7/7 6/6/6 
f 2/33/2 24/26/24 32/35/32 
f 32/35/32 3/146/3 2/33/2 
f 19/19/19 18/18/18 21/23/21 
f 21/23/21 41/45/41 19/19/19 
f 41/45/41 21/23/21 22/24/22 
f 22/24/22 39/43/39 41/45/41 
f 39/43/39 22/24/22 30/32/30 
f 30/32/30 37/41/37 39/43/39 
f 30/32/30 29/31/29 34/38/34 
f 34/38/34 37/41/37 30/32/30 
f 131/147/131 132/148/132 133/149/133 
f 133/149/133 134/150/134 131/147/131 
f 132/148/132 135/151/135 136/152/136 
f 136/152/136 133/149/133 132/148/132 
f 137/153/137 131/147/131 134/150/134 
f 134/150/134 138/154/138 137/153/137 
f 135/151/135 139/155/139 140/156/140 
f 140/156/140 136/152/136 135/151/135 
f 141/147/141 142/150/142 143/149/143 
f 143/149/143 144/148/144 141/147/141 
f 144/148/144 143/149/143 145/152/145 
f 145/152/145 146/151/146 144/148/144 
f 147/153/147 148/154/148 142/150/142 
f 142/150/142 141/147/141 147/153/147 
f 146/151/146 145/152/145 149/156/149 
f 149/156/149 150/155/150 146/151/146 
f 133/149/133 143/149/143 142/150/142 
f 142/150/142 134/150/134 133/149/133 
f 136/152/136 145/152/145 143/149/143 
f 143/149/143 133/149/133 136/152/136 
f 138/154/138 148/154/148 147/153/147 
f 147/153/147 137/153/137 138/154/138 
f 140/156/140 149/156/149 145/152/145 
f 145/152/145 136/152/136 140/156/140 
f 139/155/139 150/155/150 149/156/149 
f 149/156/149 140/156/140 139/155/139 
f 134/150/134 142/150/142 148/154/148 
f 148/154/148 138/154/138 134/150/134 
# 284 faces

