# 3ds Max Wavefront OBJ Exporter v0.99 - (c)2007 guruware
# File Created: 21.11.2023 18:44:20

mtllib babyface_Pinza_Der_Inf.mtl

#
# object BF_pinzaR_abajo
#

v  0.1727 -0.3042 0.2586
v  0.5263 -0.3543 1.0168
v  0.5424 -0.5088 1.0513
v  0.1580 -0.4595 0.2270
v  0.5079 -0.1771 0.9773
v  0.5412 -0.1424 1.0489
v  0.5973 -0.2837 1.1692
v  0.6110 0.1004 1.1985
v  0.6767 0.0059 1.3393
v  0.0247 -0.3067 -0.0589
v  0.0801 -0.2164 0.0600
v  0.0356 -0.0966 -0.0355
v  0.0681 -0.0852 0.0343
v  0.0920 0.1464 0.0855
v  0.0790 0.0602 0.0575
v  0.0500 0.0973 -0.0045
v  0.0280 0.1734 -0.0517
v  0.1559 -0.0930 0.2226
v  0.0838 -0.0167 0.0679
v  0.1883 -0.1390 0.2921
v  0.6434 -0.3997 1.2680
v  0.7341 -0.0768 1.4626
v  -0.0306 0.0617 -0.1774
v  0.0018 0.0174 -0.1078
v  0.0067 -0.0595 -0.0975
v  -0.0262 -0.0811 -0.1680
v  0.0175 0.0859 -0.0742
v  0.0003 0.1206 -0.1111
v  0.1299 -0.3042 0.2785
v  0.1152 -0.4595 0.2470
v  0.4995 -0.5088 1.0713
v  0.4835 -0.3543 1.0368
v  0.5545 -0.2837 1.1892
v  0.4984 -0.1424 1.0689
v  0.4650 -0.1771 0.9973
v  0.6338 0.0059 1.3593
v  0.5682 0.1004 1.2184
v  0.0373 -0.2164 0.0799
v  -0.0182 -0.3067 -0.0389
v  0.0253 -0.0852 0.0543
v  -0.0072 -0.0966 -0.0155
v  0.0492 0.1464 0.1055
v  -0.0148 0.1734 -0.0318
v  0.0072 0.0973 0.0155
v  0.0361 0.0602 0.0775
v  0.1131 -0.0930 0.2426
v  0.0410 -0.0167 0.0878
v  0.1455 -0.1390 0.3121
v  0.6006 -0.3997 1.2879
v  0.6913 -0.0768 1.4825
v  -0.0734 0.0617 -0.1574
v  -0.0690 -0.0811 -0.1480
v  -0.0361 -0.0595 -0.0775
v  -0.0410 0.0174 -0.0879
v  -0.0425 0.1206 -0.0911
v  -0.0253 0.0859 -0.0543
# 56 vertices

vn 0.9063 0.0000 -0.4226
vn 0.9063 -0.0000 -0.4226
vn -0.9063 0.0000 0.4226
vn -0.9063 -0.0000 0.4226
vn -0.2012 -0.8794 -0.4315
vn -0.4180 -0.1467 -0.8965
vn 0.4180 0.1467 0.8965
vn 0.0213 0.9987 0.0456
vn -0.0229 -0.9985 -0.0491
vn -0.1698 0.9158 -0.3640
vn 0.1755 -0.9097 0.3764
vn 0.2196 0.8544 0.4710
vn -0.3495 0.5621 -0.7496
vn 0.3519 -0.5537 0.7547
vn -0.1843 -0.8999 -0.3952
vn 0.2174 0.8576 0.4662
vn -0.3729 -0.4707 -0.7996
vn 0.3573 0.5341 0.7662
vn -0.2651 0.7787 -0.5686
vn -0.4215 -0.0725 -0.9039
vn 0.0740 0.9845 0.1588
vn -0.0620 0.9892 -0.1329
vn -0.3716 0.4762 -0.7970
vn 0.2012 0.8794 0.4315
vn 0.3716 -0.4762 0.7970
vn 0.0620 -0.9892 0.1329
# 26 vertex normals

vt 0.5281 0.3143 0.0000
vt 0.1922 0.3120 0.0000
vt 0.1737 0.2509 0.0000
vt 0.5388 0.2514 0.0000
vt 0.2134 0.3820 0.0000
vt 0.1825 0.3975 0.0000
vt 0.1264 0.3438 0.0000
vt 0.1216 0.4982 0.0000
vt 0.0574 0.4637 0.0000
vt 0.6683 0.3059 0.0000
vt 0.6177 0.3448 0.0000
vt 0.6624 0.3906 0.0000
vt 0.6318 0.3968 0.0000
vt 0.6141 0.4907 0.0000
vt 0.6247 0.4555 0.0000
vt 0.6528 0.4689 0.0000
vt 0.6753 0.4982 0.0000
vt 0.5485 0.3980 0.0000
vt 0.6185 0.4249 0.0000
vt 0.5168 0.3812 0.0000
vt 0.0803 0.2997 0.0000
vt 0.0012 0.4335 0.0000
vt 0.7284 0.4506 0.0000
vt 0.6968 0.4345 0.0000
vt 0.6906 0.4039 0.0000
vt 0.7213 0.3937 0.0000
vt 0.6834 0.4627 0.0000
vt 0.7004 0.4757 0.0000
vt 0.5280 0.1856 0.0000
vt 0.5386 0.2486 0.0000
vt 0.1734 0.2486 0.0000
vt 0.1920 0.1875 0.0000
vt 0.1263 0.1556 0.0000
vt 0.1824 0.1020 0.0000
vt 0.2133 0.1175 0.0000
vt 0.0574 0.0356 0.0000
vt 0.1217 0.0012 0.0000
vt 0.6176 0.1553 0.0000
vt 0.6681 0.1942 0.0000
vt 0.6318 0.1033 0.0000
vt 0.6623 0.1096 0.0000
vt 0.6142 0.0094 0.0000
vt 0.6754 0.0019 0.0000
vt 0.6529 0.0312 0.0000
vt 0.6247 0.0446 0.0000
vt 0.5485 0.1020 0.0000
vt 0.6184 0.0751 0.0000
vt 0.5167 0.1187 0.0000
vt 0.0801 0.1997 0.0000
vt 0.0012 0.0658 0.0000
vt 0.7285 0.0496 0.0000
vt 0.7212 0.1065 0.0000
vt 0.6905 0.0962 0.0000
vt 0.6968 0.0657 0.0000
vt 0.7005 0.0244 0.0000
vt 0.6834 0.0375 0.0000
vt 0.0636 0.5432 0.0000
vt 0.0948 0.5432 0.0000
vt 0.0948 0.5621 0.0000
vt 0.0636 0.5621 0.0000
vt 0.1259 0.5432 0.0000
vt 0.1259 0.5621 0.0000
vt 0.2195 0.5432 0.0000
vt 0.2507 0.5432 0.0000
vt 0.2507 0.5621 0.0000
vt 0.2195 0.5621 0.0000
vt 0.2902 0.5219 0.0000
vt 0.5936 0.5219 0.0000
vt 0.5936 0.5408 0.0000
vt 0.2902 0.5408 0.0000
vt 0.6271 0.5195 0.0000
vt 0.2620 0.5195 0.0000
vt 0.2620 0.5006 0.0000
vt 0.6271 0.5006 0.0000
vt 0.2556 0.5219 0.0000
vt 0.2556 0.5408 0.0000
vt 0.1566 0.5195 0.0000
vt 0.1566 0.5006 0.0000
vt 0.0012 0.5219 0.0000
vt 0.0650 0.5219 0.0000
vt 0.0650 0.5408 0.0000
vt 0.0012 0.5408 0.0000
vt 0.1379 0.5219 0.0000
vt 0.1379 0.5408 0.0000
vt 0.0012 0.5195 0.0000
vt 0.0012 0.5006 0.0000
vt 0.7676 0.5195 0.0000
vt 0.7676 0.5006 0.0000
vt 0.6295 0.5219 0.0000
vt 0.6295 0.5408 0.0000
vt 0.8701 0.5195 0.0000
vt 0.8701 0.5006 0.0000
vt 0.7430 0.5219 0.0000
vt 0.7430 0.5408 0.0000
vt 0.9988 0.5195 0.0000
vt 0.9651 0.5195 0.0000
vt 0.9651 0.5006 0.0000
vt 0.9988 0.5006 0.0000
vt 0.9275 0.5195 0.0000
vt 0.9275 0.5006 0.0000
vt 0.8046 0.5219 0.0000
vt 0.8046 0.5408 0.0000
vt 0.1571 0.5432 0.0000
vt 0.1883 0.5432 0.0000
vt 0.1883 0.5621 0.0000
vt 0.1571 0.5621 0.0000
vt 0.0012 0.5432 0.0000
vt 0.0324 0.5432 0.0000
vt 0.0324 0.5621 0.0000
vt 0.0012 0.5621 0.0000
# 110 texture coords

o BF_pinzaR_abajo
g BF_pinzaR_abajo
usemtl BF_03_Material
s off
f 1/1/1 2/2/1 3/3/1 
f 3/3/1 4/4/1 1/1/1 
f 2/2/1 5/5/1 6/6/1 
f 6/6/1 7/7/1 2/2/1 
f 7/7/1 6/6/1 8/8/1 
f 8/8/1 9/9/1 7/7/1 
f 1/1/1 4/4/1 10/10/1 
f 10/10/1 11/11/1 1/1/1 
f 11/11/2 10/10/2 12/12/2 
f 12/12/2 13/13/2 11/11/2 
f 14/14/2 15/15/2 16/16/2 
f 16/16/2 17/17/2 14/14/2 
f 18/18/1 19/19/1 15/15/1 
f 15/15/1 14/14/1 18/18/1 
f 20/20/1 1/1/1 11/11/1 
f 11/11/1 18/18/1 20/20/1 
f 21/21/1 7/7/1 9/9/1 
f 9/9/1 22/22/1 21/21/1 
f 3/3/1 2/2/1 7/7/1 
f 7/7/1 21/21/1 3/3/1 
f 20/20/1 5/5/1 2/2/1 
f 2/2/1 1/1/1 20/20/1 
f 23/23/1 24/24/1 25/25/1 
f 25/25/1 26/26/1 23/23/1 
f 17/17/2 16/16/2 27/27/2 
f 27/27/2 28/28/2 17/17/2 
f 27/27/1 24/24/1 23/23/1 
f 23/23/1 28/28/1 27/27/1 
f 13/13/1 19/19/1 18/18/1 
f 18/18/1 11/11/1 13/13/1 
f 25/25/2 12/12/2 10/10/2 
f 10/10/2 26/26/2 25/25/2 
f 29/29/3 30/30/3 31/31/3 
f 31/31/3 32/32/3 29/29/3 
f 32/32/4 33/33/4 34/34/4 
f 34/34/4 35/35/4 32/32/4 
f 33/33/4 36/36/4 37/37/4 
f 37/37/4 34/34/4 33/33/4 
f 29/29/3 38/38/3 39/39/3 
f 39/39/3 30/30/3 29/29/3 
f 38/38/3 40/40/3 41/41/3 
f 41/41/3 39/39/3 38/38/3 
f 42/42/4 43/43/4 44/44/4 
f 44/44/4 45/45/4 42/42/4 
f 46/46/4 42/42/4 45/45/4 
f 45/45/4 47/47/4 46/46/4 
f 48/48/4 46/46/4 38/38/4 
f 38/38/4 29/29/4 48/48/4 
f 49/49/4 50/50/4 36/36/4 
f 36/36/4 33/33/4 49/49/4 
f 31/31/4 49/49/4 33/33/4 
f 33/33/4 32/32/4 31/31/4 
f 48/48/4 29/29/4 32/32/4 
f 32/32/4 35/35/4 48/48/4 
f 51/51/4 52/52/4 53/53/4 
f 53/53/4 54/54/4 51/51/4 
f 43/43/3 55/55/3 56/56/3 
f 56/56/3 44/44/3 43/43/3 
f 56/56/3 55/55/3 51/51/3 
f 51/51/3 54/54/3 56/56/3 
f 40/40/4 38/38/4 46/46/4 
f 46/46/4 47/47/4 40/40/4 
f 53/53/3 52/52/3 39/39/3 
f 39/39/3 41/41/3 53/53/3 
f 16/57/5 15/58/5 45/59/5 
f 45/59/5 44/60/5 16/57/5 
f 15/58/6 19/61/6 47/62/6 
f 47/62/6 45/59/6 15/58/6 
f 25/63/7 24/64/7 54/65/7 
f 54/65/7 53/66/7 25/63/7 
f 5/67/8 20/68/8 48/69/8 
f 48/69/8 35/70/8 5/67/8 
f 4/71/9 3/72/9 31/73/9 
f 31/73/9 30/74/9 4/71/9 
f 6/75/10 5/67/10 35/70/10 
f 35/70/10 34/76/10 6/75/10 
f 3/72/11 21/77/11 49/78/11 
f 49/78/11 31/73/11 3/72/11 
f 22/79/12 9/80/12 36/81/12 
f 36/81/12 50/82/12 22/79/12 
f 8/83/13 6/75/13 34/76/13 
f 34/76/13 37/84/13 8/83/13 
f 21/77/14 22/85/14 50/86/14 
f 50/86/14 49/78/14 21/77/14 
f 10/87/15 4/71/15 30/74/15 
f 30/74/15 39/88/15 10/87/15 
f 20/68/16 18/89/16 46/90/16 
f 46/90/16 48/69/16 20/68/16 
f 26/91/17 10/87/17 39/88/17 
f 39/88/17 52/92/17 26/91/17 
f 18/89/18 14/93/18 42/94/18 
f 42/94/18 46/90/18 18/89/18 
f 17/95/19 28/96/19 55/97/19 
f 55/97/19 43/98/19 17/95/19 
f 23/99/20 26/91/20 52/92/20 
f 52/92/20 51/100/20 23/99/20 
f 14/93/21 17/101/21 43/102/21 
f 43/102/21 42/94/21 14/93/21 
f 9/80/12 8/83/12 37/84/12 
f 37/84/12 36/81/12 9/80/12 
f 28/96/19 23/99/19 51/100/19 
f 51/100/19 55/97/19 28/96/19 
f 13/103/22 12/104/22 41/105/22 
f 41/105/22 40/106/22 13/103/22 
f 19/61/23 13/103/23 40/106/23 
f 40/106/23 47/62/23 19/61/23 
f 12/104/24 25/63/24 53/66/24 
f 53/66/24 41/105/24 12/104/24 
f 24/107/25 27/108/25 56/109/25 
f 56/109/25 54/110/25 24/107/25 
f 27/108/26 16/57/26 44/60/26 
f 44/60/26 56/109/26 27/108/26 
# 112 faces

