# 3ds Max Wavefront OBJ Exporter v0.99 - (c)2007 guruware
# File Created: 21.11.2023 17:59:42

mtllib babyface_Pinza_Izq_Inf.mtl

#
# object BF_pinzaL_abajo
#

v  -0.6265 -0.3422 1.4554
v  -0.5834 -0.5600 1.3630
v  -0.4404 -0.8097 1.0563
v  -0.4893 -0.5250 1.1613
v  -0.3704 -0.5523 0.9062
v  -0.2989 -0.8592 0.7529
v  -0.2670 -0.5072 0.6845
v  -0.2085 -0.8096 0.5590
v  -0.1981 -0.4261 0.5366
v  -0.1167 -0.7173 0.3621
v  -0.1025 -0.2810 0.3318
v  -0.0231 -0.5718 0.1614
v  -0.0110 -0.1098 0.1356
v  0.0538 -0.4271 -0.0035
v  0.0771 0.0999 -0.0534
v  0.0939 0.0127 -0.0895
v  0.1296 0.0395 -0.1660
v  0.1046 0.1742 -0.1123
v  0.1123 -0.2170 -0.1289
v  0.0851 -0.0810 -0.0707
v  0.0482 -0.1207 0.0085
v  -0.0043 0.0978 0.0093
v  -0.0052 0.2394 0.0112
v  0.0618 0.1742 -0.1323
v  0.0278 0.0811 -0.0596
v  -0.0549 0.1050 0.2297
v  -0.2236 0.1619 0.5914
v  -0.2807 -0.1304 0.7138
v  -0.3496 -0.0807 0.8615
v  -0.4431 -0.2404 1.0621
v  -0.5806 0.0063 1.3570
v  -0.6598 -0.1736 1.5270
v  0.0376 0.2394 0.0312
v  -0.0310 0.1867 0.1783
v  0.0006 0.0809 0.1105
v  0.0375 0.1207 0.0315
v  0.0087 -0.1000 0.0933
v  -0.0081 -0.0127 0.1293
v  -0.6693 -0.3422 1.4354
v  -0.5321 -0.5250 1.1413
v  -0.4832 -0.8097 1.0363
v  -0.6262 -0.5600 1.3431
v  -0.4132 -0.5523 0.8862
v  -0.3417 -0.8592 0.7329
v  -0.3098 -0.5072 0.6645
v  -0.2513 -0.8096 0.5390
v  -0.2409 -0.4261 0.5167
v  -0.1595 -0.7173 0.3421
v  -0.1453 -0.2810 0.3118
v  -0.0659 -0.5718 0.1414
v  -0.0539 -0.1098 0.1156
v  0.0110 -0.4271 -0.0234
v  0.0868 0.0395 -0.1860
v  0.0414 0.0102 -0.0887
v  0.0695 -0.2170 -0.1489
v  0.0344 -0.0657 -0.0735
v  0.0044 -0.0979 -0.0093
v  -0.0978 0.1050 0.2098
v  -0.2664 0.1619 0.5714
v  -0.3235 -0.1304 0.6938
v  -0.3924 -0.0807 0.8416
v  -0.4859 -0.2404 1.0421
v  -0.6234 0.0063 1.3371
v  -0.7027 -0.1736 1.5070
v  -0.0342 0.0657 0.0735
v  -0.0738 0.1867 0.1584
v  -0.0277 -0.0812 0.0595
v  -0.0413 -0.0103 0.0887
v  -0.0588 0.0811 -0.1000
v  -0.0909 0.0978 -0.0311
v  -0.0452 0.0102 -0.1291
v  -0.0822 -0.0979 -0.0497
v  -0.0523 -0.0657 -0.1139
v  -0.1208 0.0657 0.0331
v  -0.1279 -0.0103 0.0483
v  -0.1143 -0.0812 0.0191
v  0.1215 0.0629 0.0004
v  0.0397 -0.0000 0.0185
v  0.1132 0.0032 0.0183
v  -0.1006 0.0811 -0.1195
v  -0.0870 0.0102 -0.1486
v  -0.1241 0.0063 -0.1249
v  -0.1326 0.0503 -0.1068
v  0.0986 0.0312 0.0495
v  0.1296 0.0864 -0.0169
v  0.0953 0.1044 0.0565
v  -0.1327 0.0978 -0.0506
v  -0.1525 0.0607 -0.0641
v  -0.1783 -0.0000 -0.0832
v  -0.0919 0.1207 -0.0289
v  -0.0523 0.0999 -0.1138
v  -0.0942 0.0999 -0.1333
v  -0.1337 0.1207 -0.0484
v  -0.0355 0.0127 -0.1499
v  -0.0774 0.0127 -0.1694
v  0.1296 0.0127 -0.0729
v  0.1128 0.0999 -0.0368
v  0.0732 0.1207 0.0481
v  0.1441 0.0109 -0.0481
v  0.1266 -0.0510 -0.0104
v  -0.0941 -0.0657 -0.1334
v  -0.1285 -0.0408 -0.1155
v  0.1014 -0.0313 0.0436
v  0.1046 -0.1044 0.0366
v  0.1365 -0.0700 -0.0318
v  -0.1240 -0.0979 -0.0692
v  -0.1471 -0.0608 -0.0757
v  -0.0812 -0.1207 -0.0519
v  -0.1230 -0.1208 -0.0714
v  -0.0861 -0.0810 -0.1505
v  -0.0443 -0.0810 -0.1310
v  0.1208 -0.0810 -0.0540
v  0.0839 -0.1208 0.0251
v  0.0734 0.0509 0.1036
v  0.0868 -0.0033 0.0749
v  -0.1627 0.0657 0.0136
v  -0.1711 0.0407 -0.0243
v  -0.1755 -0.0064 -0.0149
v  -0.1698 -0.0103 0.0288
v  0.0635 0.0699 0.1249
v  -0.1706 0.0809 0.0307
v  -0.1288 0.0809 0.0502
v  -0.1375 -0.0127 0.0689
v  -0.1794 -0.0127 0.0495
v  0.0275 -0.0127 0.1460
v  0.0363 0.0809 0.1272
v  0.0559 -0.0110 0.1412
v  0.0784 -0.0629 0.0927
v  -0.1561 -0.0812 -0.0004
v  -0.1670 -0.0504 -0.0330
v  0.0704 -0.0865 0.1100
v  -0.1208 -0.1000 0.0330
v  -0.1626 -0.1000 0.0135
v  0.0444 -0.1000 0.1100
# 134 vertices

vn 0.9063 0.0000 0.4226
vn -0.9063 -0.0000 -0.4226
vn 0.9063 -0.0000 0.4226
vn -0.9063 0.0000 -0.4226
vn 0.1608 0.9247 -0.3449
vn 0.4173 -0.1577 -0.8950
vn 0.3529 -0.5501 -0.7569
vn 0.2631 -0.7826 -0.5642
vn 0.2322 -0.8356 -0.4979
vn 0.1652 -0.9204 -0.3543
vn 0.0955 -0.9741 -0.2047
vn -0.0618 -0.9893 0.1325
vn -0.2509 -0.8046 0.5382
vn -0.2925 0.7217 0.6273
vn 0.1233 0.9565 -0.2644
vn -0.3836 0.4195 0.8227
vn 0.0596 0.9900 -0.1279
vn -0.3471 0.5706 0.7443
vn -0.1304 0.9512 0.2797
vn 0.3869 0.4026 -0.8296
vn 0.2552 0.7970 -0.5474
vn -0.2473 0.8109 0.5303
vn -0.3828 -0.4240 0.8208
vn 0.0910 0.9765 -0.1952
vn 0.3848 0.4137 -0.8251
vn 0.1748 -0.9104 -0.3749
vn 0.4127 -0.2153 -0.8850
vn -0.1748 0.9104 0.3749
vn -0.4127 0.2153 0.8850
vn -0.0910 -0.9765 0.1952
vn -0.3848 -0.4137 0.8251
vn -0.0101 0.2882 0.9575
vn -0.5408 0.2294 -0.8093
vn -0.7037 0.5415 -0.4599
vn -0.6987 0.3399 -0.6295
vn 0.0915 0.9762 -0.1964
vn 0.3844 0.4149 -0.8247
vn 0.3845 0.4149 -0.8246
vn 0.0916 0.9762 -0.1964
vn 0.5542 -0.7931 -0.2527
vn 0.5757 0.8148 0.0689
vn 0.8202 0.3463 -0.4554
vn 0.0233 -0.4632 0.8859
vn -0.5253 -0.1194 -0.8425
vn -0.6572 -0.5049 -0.5596
vn -0.6714 -0.2752 -0.6881
vn 0.1763 -0.9101 -0.3749
vn 0.4125 -0.2167 -0.8848
vn 0.4126 -0.2167 -0.8848
vn 0.1735 -0.9101 -0.3762
vn 0.4802 0.8721 -0.0941
vn 0.6456 -0.7594 -0.0811
vn 0.8436 -0.1809 -0.5056
vn 0.6936 0.4632 -0.5517
vn -0.9831 0.1194 0.1391
vn -0.8511 0.5049 -0.1438
vn -0.9587 0.2752 -0.0720
vn -0.1754 0.9098 0.3761
vn -0.4114 0.2161 0.8855
vn -0.4142 0.2160 0.8842
vn 0.2366 -0.8721 0.4283
vn 0.3529 0.7594 0.5467
vn 0.1549 0.1809 0.9712
vn 0.7270 -0.2882 -0.6232
vn -0.9676 -0.2294 0.1059
vn -0.8047 -0.5415 -0.2435
vn -0.9314 -0.3399 -0.1306
vn -0.0901 -0.9764 0.1964
vn -0.3834 -0.4143 0.8254
vn -0.3862 -0.4143 0.8241
vn -0.0929 -0.9764 0.1951
vn 0.1627 0.7931 0.5870
vn 0.4228 -0.8148 0.3967
vn 0.1783 -0.3463 0.9210
# 74 vertex normals

vt 0.0222 0.2189 0.0000
vt 0.0486 0.1374 0.0000
vt 0.1572 0.0341 0.0000
vt 0.1289 0.1399 0.0000
vt 0.2271 0.1178 0.0000
vt 0.2733 0.0018 0.0000
vt 0.3156 0.1229 0.0000
vt 0.3511 0.0099 0.0000
vt 0.3768 0.1443 0.0000
vt 0.4320 0.0329 0.0000
vt 0.4631 0.1856 0.0000
vt 0.5167 0.0745 0.0000
vt 0.5472 0.2365 0.0000
vt 0.5874 0.1176 0.0000
vt 0.6302 0.3014 0.0000
vt 0.6404 0.2688 0.0000
vt 0.6715 0.2745 0.0000
vt 0.6565 0.3248 0.0000
vt 0.6456 0.1857 0.0000
vt 0.6289 0.2366 0.0000
vt 0.5963 0.2265 0.0000
vt 0.5979 0.4086 0.0000
vt 0.6034 0.3584 0.0000
vt 0.6565 0.3885 0.0000
vt 0.6240 0.4179 0.0000
vt 0.5200 0.3170 0.0000
vt 0.3815 0.3548 0.0000
vt 0.3208 0.2575 0.0000
vt 0.2654 0.2823 0.0000
vt 0.1802 0.2357 0.0000
vt 0.0760 0.3372 0.0000
vt 0.0018 0.2820 0.0000
vt 0.6034 0.3548 0.0000
vt 0.5437 0.3434 0.0000
vt 0.5654 0.3027 0.0000
vt 0.5981 0.3129 0.0000
vt 0.5642 0.2379 0.0000
vt 0.5540 0.2705 0.0000
vt 0.0222 0.4944 0.0000
vt 0.1289 0.5734 0.0000
vt 0.1572 0.6791 0.0000
vt 0.0486 0.5759 0.0000
vt 0.2271 0.5955 0.0000
vt 0.2733 0.7115 0.0000
vt 0.3156 0.5904 0.0000
vt 0.3511 0.7034 0.0000
vt 0.3768 0.5689 0.0000
vt 0.4320 0.6804 0.0000
vt 0.4631 0.5277 0.0000
vt 0.5167 0.6388 0.0000
vt 0.5472 0.4768 0.0000
vt 0.5874 0.5957 0.0000
vt 0.6715 0.4387 0.0000
vt 0.6322 0.4443 0.0000
vt 0.6456 0.5276 0.0000
vt 0.6230 0.4704 0.0000
vt 0.5965 0.4787 0.0000
vt 0.7522 0.7355 0.0000
vt 0.8132 0.7355 0.0000
vt 0.8132 0.7524 0.0000
vt 0.7522 0.7524 0.0000
vt 0.5200 0.3962 0.0000
vt 0.3815 0.3584 0.0000
vt 0.3208 0.4558 0.0000
vt 0.2654 0.4310 0.0000
vt 0.1802 0.4776 0.0000
vt 0.0760 0.3760 0.0000
vt 0.0018 0.4313 0.0000
vt 0.5714 0.4168 0.0000
vt 0.5437 0.3699 0.0000
vt 0.5704 0.4694 0.0000
vt 0.5621 0.4429 0.0000
vt 0.9458 0.7319 0.0000
vt 0.8533 0.7319 0.0000
vt 0.8533 0.7151 0.0000
vt 0.9458 0.7151 0.0000
vt 0.7636 0.7319 0.0000
vt 0.7636 0.7151 0.0000
vt 0.6809 0.7319 0.0000
vt 0.6809 0.7151 0.0000
vt 0.5865 0.7319 0.0000
vt 0.5865 0.7151 0.0000
vt 0.5024 0.7319 0.0000
vt 0.5024 0.7151 0.0000
vt 0.4242 0.7319 0.0000
vt 0.4242 0.7151 0.0000
vt 0.3036 0.7319 0.0000
vt 0.3036 0.7151 0.0000
vt 0.1538 0.7319 0.0000
vt 0.1538 0.7151 0.0000
vt 0.0018 0.7355 0.0000
vt 0.0944 0.7355 0.0000
vt 0.0944 0.7524 0.0000
vt 0.0018 0.7524 0.0000
vt 0.3370 0.7355 0.0000
vt 0.3977 0.7355 0.0000
vt 0.3977 0.7524 0.0000
vt 0.3370 0.7524 0.0000
vt 0.5124 0.7355 0.0000
vt 0.5124 0.7524 0.0000
vt 0.6560 0.7355 0.0000
vt 0.6560 0.7524 0.0000
vt 0.6914 0.7355 0.0000
vt 0.6914 0.7524 0.0000
vt 0.9982 0.7319 0.0000
vt 0.9982 0.7151 0.0000
vt 0.2398 0.7355 0.0000
vt 0.2398 0.7524 0.0000
vt 0.0681 0.7319 0.0000
vt 0.0018 0.7319 0.0000
vt 0.0018 0.7151 0.0000
vt 0.0681 0.7151 0.0000
vt 0.0295 0.7900 0.0000
vt 0.0018 0.7900 0.0000
vt 0.0018 0.7560 0.0000
vt 0.0295 0.7560 0.0000
vt 0.1958 0.7900 0.0000
vt 0.1958 0.7560 0.0000
vt 0.2235 0.7560 0.0000
vt 0.2235 0.7900 0.0000
vt 0.1404 0.7900 0.0000
vt 0.1404 0.7560 0.0000
vt 0.1681 0.7560 0.0000
vt 0.1681 0.7900 0.0000
vt 0.0572 0.7560 0.0000
vt 0.0572 0.7900 0.0000
vt 0.0850 0.7900 0.0000
vt 0.0850 0.7560 0.0000
vt 0.1127 0.7900 0.0000
vt 0.1127 0.7560 0.0000
vt 0.6751 0.3548 0.0000
vt 0.7005 0.3306 0.0000
vt 0.6999 0.3544 0.0000
vt 0.6948 0.3584 0.0000
vt 0.7246 0.3590 0.0000
vt 0.7189 0.3744 0.0000
vt 0.7019 0.3741 0.0000
vt 0.7099 0.0433 0.0000
vt 0.6943 0.0590 0.0000
vt 0.6848 0.0635 0.0000
vt 0.6853 0.0341 0.0000
vt 0.6751 0.3813 0.0000
vt 0.6909 0.3872 0.0000
vt 0.7114 0.3948 0.0000
vt 0.2614 0.7725 0.0000
vt 0.2272 0.7726 0.0000
vt 0.2272 0.7562 0.0000
vt 0.2613 0.7561 0.0000
vt 0.4663 0.7725 0.0000
vt 0.4663 0.7561 0.0000
vt 0.5005 0.7562 0.0000
vt 0.5005 0.7726 0.0000
vt 0.6995 0.1039 0.0000
vt 0.6829 0.1260 0.0000
vt 0.6751 0.1234 0.0000
vt 0.6957 0.0961 0.0000
vt 0.7272 0.1039 0.0000
vt 0.7298 0.0961 0.0000
vt 0.7433 0.7701 0.0000
vt 0.7433 0.7561 0.0000
vt 0.7775 0.7560 0.0000
vt 0.7775 0.7700 0.0000
vt 0.5383 0.7701 0.0000
vt 0.5041 0.7700 0.0000
vt 0.5042 0.7560 0.0000
vt 0.5383 0.7561 0.0000
vt 0.7165 0.0576 0.0000
vt 0.7074 0.0819 0.0000
vt 0.6767 0.3301 0.0000
vt 0.6751 0.0680 0.0000
vt 0.6751 0.0303 0.0000
vt 0.7037 0.0918 0.0000
vt 0.7236 0.3548 0.0000
vt 0.7477 0.3781 0.0000
vt 0.7321 0.3853 0.0000
vt 0.7308 0.0511 0.0000
vt 0.7554 0.0602 0.0000
vt 0.7365 0.0828 0.0000
vt 0.7322 0.0732 0.0000
vt 0.7477 0.4082 0.0000
vt 0.7319 0.4024 0.0000
vt 0.3980 0.7724 0.0000
vt 0.3980 0.7560 0.0000
vt 0.4322 0.7561 0.0000
vt 0.4321 0.7725 0.0000
vt 0.7494 0.1206 0.0000
vt 0.7571 0.1167 0.0000
vt 0.7571 0.1509 0.0000
vt 0.7494 0.1483 0.0000
vt 0.7091 0.7702 0.0000
vt 0.7091 0.7561 0.0000
vt 0.6750 0.7702 0.0000
vt 0.6750 0.7562 0.0000
vt 0.7243 0.3311 0.0000
vt 0.7656 0.0641 0.0000
vt 0.7409 0.0925 0.0000
vt 0.6774 0.3064 0.0000
vt 0.7012 0.3068 0.0000
vt 0.6751 0.4115 0.0000
vt 0.6907 0.4042 0.0000
vt 0.7038 0.4151 0.0000
vt 0.6981 0.4305 0.0000
vt 0.7041 0.0116 0.0000
vt 0.7085 0.0212 0.0000
vt 0.2955 0.7560 0.0000
vt 0.2955 0.7725 0.0000
vt 0.3297 0.7724 0.0000
vt 0.3297 0.7560 0.0000
vt 0.6828 0.1537 0.0000
vt 0.6751 0.1576 0.0000
vt 0.7050 0.1704 0.0000
vt 0.7024 0.1782 0.0000
vt 0.6066 0.7702 0.0000
vt 0.5725 0.7702 0.0000
vt 0.5725 0.7561 0.0000
vt 0.6067 0.7562 0.0000
vt 0.7333 0.0124 0.0000
vt 0.7242 0.0368 0.0000
vt 0.6998 0.0018 0.0000
vt 0.7370 0.0025 0.0000
vt 0.7259 0.3064 0.0000
vt 0.7280 0.4311 0.0000
vt 0.7209 0.4154 0.0000
vt 0.7463 0.0353 0.0000
vt 0.7559 0.0309 0.0000
vt 0.3638 0.7724 0.0000
vt 0.3638 0.7560 0.0000
vt 0.7327 0.1704 0.0000
vt 0.7365 0.1782 0.0000
vt 0.6408 0.7562 0.0000
vt 0.6408 0.7702 0.0000
vt 0.7656 0.0264 0.0000
vt 0.7272 0.1896 0.0000
vt 0.7298 0.1818 0.0000
vt 0.7571 0.2024 0.0000
vt 0.7494 0.2062 0.0000
vt 0.7571 0.2365 0.0000
vt 0.7494 0.2339 0.0000
vt 0.6995 0.1895 0.0000
vt 0.6957 0.1818 0.0000
vt 0.6829 0.2117 0.0000
vt 0.6751 0.2091 0.0000
vt 0.7050 0.2560 0.0000
vt 0.7327 0.2561 0.0000
vt 0.7365 0.2638 0.0000
vt 0.7024 0.2638 0.0000
vt 0.6751 0.2432 0.0000
vt 0.6828 0.2394 0.0000
# 248 texture coords

o BF_pinzaL_abajo
g BF_pinzaL_abajo
usemtl BF_03_Material
s off
f 1/1/1 2/2/1 3/3/1 
f 3/3/1 4/4/1 1/1/1 
f 5/5/1 4/4/1 3/3/1 
f 3/3/1 6/6/1 5/5/1 
f 7/7/1 5/5/1 6/6/1 
f 6/6/1 8/8/1 7/7/1 
f 9/9/1 7/7/1 8/8/1 
f 8/8/1 10/10/1 9/9/1 
f 11/11/1 9/9/1 10/10/1 
f 10/10/1 12/12/1 11/11/1 
f 13/13/1 11/11/1 12/12/1 
f 12/12/1 14/14/1 13/13/1 
f 15/15/1 16/16/1 17/17/1 
f 17/17/1 18/18/1 15/15/1 
f 19/19/1 17/17/1 16/16/1 
f 16/16/1 20/20/1 19/19/1 
f 19/19/1 20/20/1 21/21/1 
f 21/21/1 14/14/1 19/19/1 
f 22/22/2 23/23/2 24/24/2 
f 24/24/2 25/25/2 22/22/2 
f 26/26/1 27/27/1 11/11/1 
f 11/11/1 13/13/1 26/26/1 
f 27/27/1 28/28/1 9/9/1 
f 9/9/1 11/11/1 27/27/1 
f 28/28/1 29/29/1 7/7/1 
f 7/7/1 9/9/1 28/28/1 
f 29/29/1 30/30/1 5/5/1 
f 5/5/1 7/7/1 29/29/1 
f 30/30/1 31/31/1 4/4/1 
f 4/4/1 5/5/1 30/30/1 
f 32/32/1 1/1/1 4/4/1 
f 4/4/1 31/31/1 32/32/1 
f 33/33/3 34/34/3 35/35/3 
f 35/35/3 36/36/3 33/33/3 
f 14/14/1 21/21/1 37/37/1 
f 37/37/1 13/13/1 14/14/1 
f 26/26/1 13/13/1 37/37/1 
f 37/37/1 38/38/1 26/26/1 
f 38/38/3 35/35/3 34/34/3 
f 34/34/3 26/26/3 38/38/3 
f 39/39/2 40/40/2 41/41/2 
f 41/41/2 42/42/2 39/39/2 
f 43/43/4 44/44/4 41/41/4 
f 41/41/4 40/40/4 43/43/4 
f 45/45/4 46/46/4 44/44/4 
f 44/44/4 43/43/4 45/45/4 
f 47/47/2 48/48/2 46/46/2 
f 46/46/2 45/45/2 47/47/2 
f 49/49/2 50/50/2 48/48/2 
f 48/48/2 47/47/2 49/49/2 
f 51/51/2 52/52/2 50/50/2 
f 50/50/2 49/49/2 51/51/2 
f 25/25/4 24/24/4 53/53/4 
f 53/53/4 54/54/4 25/25/4 
f 55/55/2 56/56/2 54/54/2 
f 54/54/2 53/53/2 55/55/2 
f 55/55/2 52/52/2 57/57/2 
f 57/57/2 56/56/2 55/55/2 
f 33/58/5 18/59/5 24/60/5 
f 24/60/5 23/61/5 33/58/5 
f 58/62/2 51/51/2 49/49/2 
f 49/49/2 59/63/2 58/62/2 
f 59/63/2 49/49/2 47/47/2 
f 47/47/2 60/64/2 59/63/2 
f 60/64/2 47/47/2 45/45/2 
f 45/45/2 61/65/2 60/64/2 
f 61/65/2 45/45/2 43/43/2 
f 43/43/2 62/66/2 61/65/2 
f 62/66/2 43/43/2 40/40/2 
f 40/40/2 63/67/2 62/66/2 
f 64/68/4 63/67/4 40/40/4 
f 40/40/4 39/39/4 64/68/4 
f 23/23/2 22/22/2 65/69/2 
f 65/69/2 66/70/2 23/23/2 
f 52/52/2 51/51/2 67/71/2 
f 67/71/2 57/57/2 52/52/2 
f 58/62/2 68/72/2 67/71/2 
f 67/71/2 51/51/2 58/62/2 
f 68/72/2 58/62/2 66/70/2 
f 66/70/2 65/69/2 68/72/2 
f 17/73/6 19/74/6 55/75/6 
f 55/75/6 53/76/6 17/73/6 
f 19/74/7 14/77/7 52/78/7 
f 52/78/7 55/75/7 19/74/7 
f 14/77/8 12/79/8 50/80/8 
f 50/80/8 52/78/8 14/77/8 
f 12/79/9 10/81/9 48/82/9 
f 48/82/9 50/80/9 12/79/9 
f 10/81/10 8/83/10 46/84/10 
f 46/84/10 48/82/10 10/81/10 
f 8/83/11 6/85/11 44/86/11 
f 44/86/11 46/84/11 8/83/11 
f 6/85/12 3/87/12 41/88/12 
f 41/88/12 44/86/12 6/85/12 
f 3/87/13 2/89/13 42/90/13 
f 42/90/13 41/88/13 3/87/13 
f 32/91/14 31/92/14 63/93/14 
f 63/93/14 64/94/14 32/91/14 
f 29/95/15 28/96/15 60/97/15 
f 60/97/15 61/98/15 29/95/15 
f 28/96/16 27/99/16 59/100/16 
f 59/100/16 60/97/16 28/96/16 
f 27/99/17 26/101/17 58/102/17 
f 58/102/17 59/100/17 27/99/17 
f 26/101/18 34/103/18 66/104/18 
f 66/104/18 58/102/18 26/101/18 
f 34/103/19 33/58/19 23/61/19 
f 23/61/19 66/104/19 34/103/19 
f 18/105/20 17/73/20 53/76/20 
f 53/76/20 24/106/20 18/105/20 
f 31/92/21 30/107/21 62/108/21 
f 62/108/21 63/93/21 31/92/21 
f 30/107/22 29/95/22 61/98/22 
f 61/98/22 62/108/22 30/107/22 
f 1/109/23 32/110/23 64/111/23 
f 64/111/23 39/112/23 1/109/23 
f 2/89/23 1/109/23 39/112/23 
f 39/112/23 42/90/23 2/89/23 
f 36/36/3 15/15/3 18/18/3 
f 18/18/3 33/33/3 36/36/3 
f 22/113/24 25/114/24 69/115/24 
f 69/115/24 70/116/24 22/113/24 
f 54/117/25 71/118/25 69/119/25 
f 69/119/25 25/120/25 54/117/25 
f 57/121/26 72/122/26 73/123/26 
f 73/123/26 56/124/26 57/121/26 
f 54/117/27 56/124/27 73/123/27 
f 73/123/27 71/118/27 54/117/27 
f 22/113/28 70/116/28 74/125/28 
f 74/125/28 65/126/28 22/113/28 
f 68/127/29 65/126/29 74/125/29 
f 74/125/29 75/128/29 68/127/29 
f 57/121/30 67/129/30 76/130/30 
f 76/130/30 72/122/30 57/121/30 
f 68/127/31 75/128/31 76/130/31 
f 76/130/31 67/129/31 68/127/31 
f 77/131/32 78/132/32 79/133/32 
f 80/134/33 81/135/33 82/136/33 
f 82/136/33 83/137/33 80/134/33 
f 84/138/1 77/139/1 85/140/1 
f 85/140/1 86/141/1 84/138/1 
f 87/142/34 80/134/34 83/137/34 
f 83/137/34 88/143/34 87/142/34 
f 83/137/35 82/136/35 89/144/35 
f 89/144/35 88/143/35 83/137/35 
f 90/145/36 91/146/36 92/147/36 
f 92/147/36 93/148/36 90/145/36 
f 94/149/37 95/150/37 92/151/37 
f 92/151/37 91/152/37 94/149/37 
f 80/153/2 87/154/2 93/155/2 
f 93/155/2 92/156/2 80/153/2 
f 81/157/2 80/153/2 92/156/2 
f 92/156/2 95/158/2 81/157/2 
f 96/159/38 16/160/38 15/161/38 
f 15/161/38 97/162/38 96/159/38 
f 98/163/39 97/164/39 15/165/39 
f 15/165/39 36/166/39 98/163/39 
f 77/139/1 79/167/1 99/168/1 
f 99/168/1 85/140/1 77/139/1 
f 78/132/40 77/131/40 84/169/40 
f 86/141/41 85/140/41 97/170/41 
f 97/170/41 98/171/41 86/141/41 
f 99/168/42 96/172/42 97/170/42 
f 97/170/42 85/140/42 99/168/42 
f 100/173/43 79/133/43 78/132/43 
f 101/174/44 102/175/44 82/136/44 
f 82/136/44 81/135/44 101/174/44 
f 103/176/1 104/177/1 105/178/1 
f 105/178/1 100/179/1 103/176/1 
f 106/180/45 107/181/45 102/175/45 
f 102/175/45 101/174/45 106/180/45 
f 102/175/46 107/181/46 89/144/46 
f 89/144/46 82/136/46 102/175/46 
f 108/182/47 109/183/47 110/184/47 
f 110/184/47 111/185/47 108/182/47 
f 94/149/48 111/185/48 110/184/48 
f 110/184/48 95/150/48 94/149/48 
f 101/186/2 110/187/2 109/188/2 
f 109/188/2 106/189/2 101/186/2 
f 81/157/2 95/158/2 110/187/2 
f 110/187/2 101/186/2 81/157/2 
f 96/159/49 112/190/49 20/191/49 
f 20/191/49 16/160/49 96/159/49 
f 113/192/50 21/193/50 20/191/50 
f 20/191/50 112/190/50 113/192/50 
f 100/179/3 105/178/3 99/168/3 
f 99/168/3 79/167/3 100/179/3 
f 78/132/51 103/194/51 100/173/51 
f 104/177/52 113/195/52 112/196/52 
f 112/196/52 105/178/52 104/177/52 
f 99/168/53 105/178/53 112/196/53 
f 112/196/53 96/172/53 99/168/53 
f 114/197/54 115/198/54 78/132/54 
f 116/199/55 117/200/55 118/201/55 
f 118/201/55 119/202/55 116/199/55 
f 84/138/1 86/141/1 120/203/1 
f 120/203/1 114/204/1 84/138/1 
f 87/142/56 88/143/56 117/200/56 
f 117/200/56 116/199/56 87/142/56 
f 117/200/57 88/143/57 89/144/57 
f 89/144/57 118/201/57 117/200/57 
f 90/145/58 93/148/58 121/205/58 
f 121/205/58 122/206/58 90/145/58 
f 123/207/59 122/206/59 121/205/59 
f 121/205/59 124/208/59 123/207/59 
f 116/209/2 121/210/2 93/155/2 
f 93/155/2 87/154/2 116/209/2 
f 119/211/2 124/212/2 121/210/2 
f 121/210/2 116/209/2 119/211/2 
f 125/213/60 126/214/60 35/215/60 
f 35/215/60 38/216/60 125/213/60 
f 98/163/58 36/166/58 35/215/58 
f 35/215/58 126/214/58 98/163/58 
f 114/204/1 120/203/1 127/217/1 
f 127/217/1 115/218/1 114/204/1 
f 78/132/61 84/169/61 114/197/61 
f 86/141/62 98/171/62 126/219/62 
f 126/219/62 120/203/62 86/141/62 
f 127/217/63 120/203/63 126/219/63 
f 126/219/63 125/220/63 127/217/63 
f 128/221/64 78/132/64 115/198/64 
f 129/222/65 119/202/65 118/201/65 
f 118/201/65 130/223/65 129/222/65 
f 103/176/1 128/224/1 131/225/1 
f 131/225/1 104/177/1 103/176/1 
f 106/180/66 129/222/66 130/223/66 
f 130/223/66 107/181/66 106/180/66 
f 130/223/67 118/201/67 89/144/67 
f 89/144/67 107/181/67 130/223/67 
f 108/182/68 132/226/68 133/227/68 
f 133/227/68 109/183/68 108/182/68 
f 123/207/69 124/208/69 133/227/69 
f 133/227/69 132/226/69 123/207/69 
f 129/228/2 106/189/2 109/188/2 
f 109/188/2 133/229/2 129/228/2 
f 119/211/2 129/228/2 133/229/2 
f 133/229/2 124/212/2 119/211/2 
f 125/213/70 38/216/70 37/230/70 
f 37/230/70 134/231/70 125/213/70 
f 113/192/71 134/231/71 37/230/71 
f 37/230/71 21/193/71 113/192/71 
f 128/224/3 115/218/3 127/217/3 
f 127/217/3 131/225/3 128/224/3 
f 78/132/72 128/221/72 103/194/72 
f 104/177/73 131/225/73 134/232/73 
f 134/232/73 113/195/73 104/177/73 
f 127/217/74 125/220/74 134/232/74 
f 134/232/74 131/225/74 127/217/74 
f 75/233/3 123/234/3 132/235/3 
f 132/235/3 76/236/3 75/233/3 
f 76/236/3 132/235/3 108/237/3 
f 108/237/3 72/238/3 76/236/3 
f 75/233/1 74/239/1 122/240/1 
f 122/240/1 123/234/1 75/233/1 
f 74/239/3 70/241/3 90/242/3 
f 90/242/3 122/240/3 74/239/3 
f 71/243/3 73/244/3 111/245/3 
f 111/245/3 94/246/3 71/243/3 
f 73/244/3 72/238/3 108/237/3 
f 108/237/3 111/245/3 73/244/3 
f 71/243/1 94/246/1 91/247/1 
f 91/247/1 69/248/1 71/243/1 
f 69/248/1 91/247/1 90/242/1 
f 90/242/1 70/241/1 69/248/1 
# 264 faces

