# 3ds Max Wavefront OBJ Exporter v0.99 - (c)2007 guruware
# File Created: 22.11.2023 04:06:50

mtllib babyface_Alfombra.mtl

#
# object BF_Alfombra
#

v  0.0000 0.3150 0.0000
v  -8.4238 0.3150 0.0000
v  -6.3178 0.3150 6.3178
v  0.0000 0.3150 8.4238
v  6.3178 0.3150 6.3178
v  8.4238 0.3150 0.0000
v  6.3178 0.3150 -6.3178
v  0.0000 0.3150 -8.4238
v  -6.3178 0.3150 -6.3178
v  0.0000 -0.0000 -8.4238
v  -6.3178 -0.0000 -6.3178
v  8.4238 -0.0000 0.0000
v  6.3178 -0.0000 -6.3178
v  0.0000 -0.0000 8.4238
v  6.3178 -0.0000 6.3178
v  -8.4238 -0.0000 0.0000
v  -6.3178 -0.0000 6.3178
# 17 vertices

vn 0.0000 1.0000 -0.0000
vn -0.3162 0.0000 -0.9487
vn 0.9487 0.0000 -0.3162
vn 0.3162 0.0000 0.9487
vn -0.9487 0.0000 0.3162
vn 0.3162 0.0000 -0.9487
vn 0.9487 0.0000 0.3162
vn -0.3162 0.0000 0.9487
vn -0.9487 0.0000 -0.3162
# 9 vertex normals

vt 0.5000 0.4999 0.0000
vt 0.0182 0.5000 0.0000
vt 0.1386 0.1386 0.0000
vt 0.5000 0.0181 0.0000
vt 0.8614 0.1386 0.0000
vt 0.9818 0.5000 0.0000
vt 0.8612 0.8614 0.0000
vt 0.5000 0.9815 0.0000
vt 0.1388 0.8614 0.0000
vt 0.5000 0.9985 0.0000
vt 0.1331 0.8787 0.0000
vt 0.9990 0.5057 0.0000
vt 0.8783 0.8671 0.0000
vt 0.5057 0.0010 0.0000
vt 0.8671 0.1215 0.0000
vt 0.0011 0.4943 0.0000
vt 0.1215 0.1329 0.0000
vt 0.8669 0.8787 0.0000
vt 0.8785 0.1329 0.0000
vt 0.9989 0.4943 0.0000
vt 0.1329 0.1215 0.0000
vt 0.4943 0.0010 0.0000
vt 0.1217 0.8671 0.0000
vt 0.0010 0.5057 0.0000
# 24 texture coords

o BF_Alfombra
g BF_Alfombra
usemtl BF_Alfombra_Mat
s off
f 1/1/1 2/2/1 3/3/1 
f 3/3/1 4/4/1 1/1/1 
f 1/1/1 4/4/1 5/5/1 
f 5/5/1 6/6/1 1/1/1 
f 1/1/1 6/6/1 7/7/1 
f 7/7/1 8/8/1 1/1/1 
f 1/1/1 8/8/1 9/9/1 
f 9/9/1 2/2/1 1/1/1 
f 9/9/2 8/8/2 10/10/2 
f 10/10/2 11/11/2 9/9/2 
f 7/7/3 6/6/3 12/12/3 
f 12/12/3 13/13/3 7/7/3 
f 5/5/4 4/4/4 14/14/4 
f 14/14/4 15/15/4 5/5/4 
f 3/3/5 2/2/5 16/16/5 
f 16/16/5 17/17/5 3/3/5 
f 8/8/6 7/7/6 13/18/6 
f 13/18/6 10/10/6 8/8/6 
f 6/6/7 5/5/7 15/19/7 
f 15/19/7 12/20/7 6/6/7 
f 4/4/8 3/3/8 17/21/8 
f 17/21/8 14/22/8 4/4/8 
f 2/2/9 9/9/9 11/23/9 
f 11/23/9 16/24/9 2/2/9 
# 24 faces

