# 3ds Max Wavefront OBJ Exporter v0.99 - (c)2007 guruware
# File Created: 16.11.2023 12:33:35

mtllib pataDel2_abajo_caballoTS.mtl

#
# object patadel2_abajo
#

v  -0.3402 -0.1006 0.1016
v  -0.3566 -0.0008 0.1078
v  -0.1765 -0.0943 -0.0073
v  -0.2015 -0.0335 -0.0765
v  0.1074 -0.0217 -0.0414
v  0.1095 -0.0805 -0.0399
v  0.2875 -0.0919 0.0652
v  0.2915 0.0325 0.0606
v  0.2100 -1.1498 -0.6987
v  -0.2214 -0.2540 -0.2367
v  0.1410 -0.2322 -0.2762
v  0.4794 -0.4110 0.0267
v  0.5612 -1.3814 -0.2859
v  0.6147 -2.1650 -0.7138
v  0.2403 -2.1731 -1.3262
v  0.3844 -2.5518 -0.6629
v  0.1016 -2.5585 -1.1809
v  -0.2302 -2.5563 -1.1850
v  -0.3721 -2.1764 -1.3267
v  -0.3640 -1.1578 -0.6760
v  -0.5072 -0.4341 0.0181
v  -0.6050 -1.3952 -0.2853
v  -0.6428 -2.1857 -0.6865
v  -0.4157 -2.5372 -0.6464
v  -0.2841 -0.6023 0.5914
v  -0.4125 -1.6779 0.5296
v  0.4274 -1.6729 0.4927
v  0.4318 -2.3376 0.4240
v  -0.4314 -2.3600 0.4642
v  -0.1106 -2.4884 0.2588
v  0.2911 -0.5973 0.5952
# 31 vertices

vn -0.7313 0.6374 0.2427
vn -0.6234 -0.7625 0.1731
vn -0.4072 0.1510 -0.9008
vn -0.3121 -0.8393 -0.4452
vn 0.3394 -0.5465 -0.7656
vn 0.1917 0.5053 -0.8414
vn 0.7099 0.6811 0.1791
vn 0.6915 -0.7209 0.0452
vn 0.4335 0.4393 -0.7868
vn -0.4003 0.6023 -0.6906
vn 0.2852 0.6115 -0.7380
vn 0.9423 0.3260 -0.0760
vn 0.9749 0.1614 -0.1535
vn 0.9557 -0.1374 -0.2603
vn 0.4827 0.0130 -0.8757
vn 0.7785 -0.6061 -0.1630
vn 0.4288 -0.4497 -0.7835
vn -0.4522 -0.4805 -0.7514
vn -0.5303 0.0110 -0.8477
vn -0.5451 0.4206 -0.7252
vn -0.9524 0.3009 -0.0488
vn -0.9896 0.1263 -0.0684
vn -0.9701 -0.1808 -0.1621
vn -0.7945 -0.6023 -0.0776
vn -0.4772 0.2911 0.8292
vn -0.6048 -0.0226 0.7960
vn 0.6661 -0.0307 0.7452
vn 0.5955 -0.5058 0.6241
vn -0.5537 -0.5043 0.6626
vn -0.0237 -0.9388 0.3435
vn 0.4942 0.2994 0.8162
# 31 vertex normals

vt 0.1620 0.3080 0.0000
vt 0.1801 0.3435 0.0000
vt 0.1306 0.3080 0.0000
vt 0.1315 0.3435 0.0000
vt 0.0885 0.3435 0.0000
vt 0.0885 0.3080 0.0000
vt 0.0502 0.3080 0.0000
vt 0.0375 0.3435 0.0000
vt 0.0885 0.1464 0.0000
vt 0.1306 0.2556 0.0000
vt 0.0885 0.2556 0.0000
vt 0.0166 0.2556 0.0000
vt 0.0166 0.1464 0.0000
vt 0.0166 0.0523 0.0000
vt 0.0885 0.0523 0.0000
vt 0.0166 0.0176 0.0000
vt 0.0885 0.0176 0.0000
vt 0.1306 0.0176 0.0000
vt 0.1306 0.0523 0.0000
vt 0.1306 0.1464 0.0000
vt 0.1927 0.2556 0.0000
vt 0.1927 0.1464 0.0000
vt 0.1927 0.0523 0.0000
vt 0.1927 0.0176 0.0000
vt 0.1091 0.0176 0.0000
# 25 texture coords

o patadel2_abajo
g patadel2_abajo
usemtl caballo_ts
s 1
f 1/1/1 2/2/2 3/3/3 
f 3/3/3 2/2/2 4/4/4 
f 4/4/4 5/5/5 3/3/3 
f 3/3/3 5/5/5 6/6/6 
f 6/6/6 5/5/5 7/7/7 
f 7/7/7 5/5/5 8/8/8 
f 2/8/2 1/7/1 8/2/8 
f 8/2/8 1/7/1 7/1/7 
f 9/9/9 10/10/10 11/11/11 
f 10/10/10 6/6/6 11/11/11 
f 6/6/6 7/7/7 11/11/11 
f 7/7/7 12/12/12 11/11/11 
f 11/11/11 12/12/12 9/9/9 
f 12/12/12 13/13/13 9/9/9 
f 13/13/13 14/14/14 9/9/9 
f 9/9/9 14/14/14 15/15/15 
f 14/14/14 16/16/16 15/15/15 
f 16/16/16 17/17/17 15/15/15 
f 17/17/17 18/18/18 15/15/15 
f 18/18/18 19/19/19 15/15/15 
f 15/15/15 19/19/19 9/9/9 
f 19/19/19 20/20/20 9/9/9 
f 9/9/9 20/20/20 10/10/10 
f 20/20/20 21/21/21 10/10/10 
f 21/21/21 1/1/1 10/10/10 
f 10/10/10 1/1/1 3/3/3 
f 21/21/21 20/20/20 22/22/22 
f 22/22/22 20/20/20 23/23/23 
f 20/20/20 19/19/19 23/23/23 
f 19/19/19 18/18/18 23/23/23 
f 23/23/23 18/18/18 24/24/24 
f 1/7/1 21/12/21 25/11/25 
f 21/12/21 22/13/22 25/11/25 
f 22/13/22 26/9/26 25/11/25 
f 25/11/25 26/9/26 27/20/27 
f 27/20/27 26/9/26 28/19/28 
f 28/19/28 26/9/26 29/15/29 
f 26/9/26 22/13/22 29/15/29 
f 22/13/22 23/14/23 29/15/29 
f 23/14/23 24/16/24 29/15/29 
f 24/16/24 30/25/30 29/15/29 
f 29/15/29 30/25/30 28/19/28 
f 30/25/30 16/24/16 28/19/28 
f 16/24/16 14/23/14 28/19/28 
f 14/23/14 13/22/13 28/19/28 
f 28/19/28 13/22/13 27/20/27 
f 27/20/27 13/22/13 31/10/31 
f 13/22/13 12/21/12 31/10/31 
f 31/10/31 12/21/12 7/1/7 
f 10/10/10 3/3/3 6/6/6 
f 1/7/1 25/11/25 7/1/7 
f 7/1/7 25/11/25 31/10/31 
f 25/11/25 27/20/27 31/10/31 
# 53 faces

