# 3ds Max Wavefront OBJ Exporter v0.99 - (c)2007 guruware
# File Created: 16.11.2023 12:12:34

mtllib pataDel1_planta_caballoTS.mtl

#
# object patadel1_planta
#

v  0.9973 -1.3151 -0.0152
v  0.5575 -1.3149 -0.8012
v  0.8394 -0.7214 -0.0925
v  0.4804 -0.7488 -0.8422
v  0.0105 -1.3148 -0.9512
v  0.0266 -0.7508 -0.9461
v  -0.4018 -0.7506 -0.8504
v  -0.4845 -1.3148 -0.8290
v  -0.8693 -0.7226 -0.1310
v  -1.0066 -1.3156 -0.0842
v  -0.7350 -0.6660 1.0494
v  -0.8705 -1.3160 1.1786
v  -0.0887 -0.6495 1.5408
v  -0.1093 -1.3160 1.8309
v  0.7346 -1.3160 1.2520
v  0.6127 -0.6598 1.1357
v  0.4938 -0.2740 -0.1454
v  0.2927 -0.3290 -0.7555
v  0.3617 -0.0343 -0.2233
v  0.1762 -0.0534 -0.7619
v  0.0304 -0.3331 -0.7992
v  -0.1556 -0.0556 -0.7578
v  -0.2366 -0.3328 -0.7431
v  -0.4384 -0.0489 -0.2398
v  -0.5444 -0.2758 -0.1480
v  -0.4434 -0.1623 0.7874
v  0.0566 0.0145 0.6819
v  -0.0536 -0.1293 1.0503
v  0.3532 -0.1499 0.8749
v  -0.0551 -1.3154 -0.0516
# 30 vertices

vn 0.9653 0.2279 -0.1277
vn 0.6586 0.0552 -0.7504
vn 0.9070 0.3874 -0.1650
vn 0.6159 0.2292 -0.7537
vn 0.0038 -0.0063 -1.0000
vn 0.0000 0.1618 -0.9868
vn -0.5579 0.2323 -0.7967
vn -0.5976 0.0675 -0.7989
vn -0.8986 0.3660 -0.2421
vn -0.9545 0.2018 -0.2196
vn -0.7899 0.4300 0.4372
vn -0.8347 0.2835 0.4721
vn -0.0508 0.5091 0.8592
vn -0.0511 0.4000 0.9151
vn 0.7869 0.2665 0.5566
vn 0.7407 0.4158 0.5278
vn 0.8233 0.5571 -0.1082
vn 0.6030 0.3542 -0.7147
vn 0.9875 -0.1278 -0.0918
vn 0.4941 -0.1530 -0.8558
vn -0.0174 0.2051 -0.9786
vn -0.4714 -0.1733 -0.8647
vn -0.5739 0.2888 -0.7663
vn -0.9580 -0.1427 -0.2487
vn -0.8584 0.4688 -0.2083
vn -0.5854 0.7573 0.2895
vn 0.1252 0.9735 0.1913
vn -0.0622 0.7962 0.6019
vn 0.5647 0.7414 0.3624
vn 0.0003 -1.0000 -0.0010
vn -0.0003 -1.0000 -0.0007
vn 0.0000 -1.0000 -0.0006
vn 0.0003 -1.0000 -0.0004
vn 0.0003 -1.0000 -0.0007
vn -0.0003 -1.0000 -0.0003
vn 0.0002 -1.0000 -0.0003
vn 0.0003 -1.0000 -0.0003
# 37 vertex normals

vt 0.7141 0.3360 0.0000
vt 0.7307 0.3360 0.0000
vt 0.7141 0.3226 0.0000
vt 0.7300 0.3219 0.0000
vt 0.7359 0.3360 0.0000
vt 0.7349 0.3219 0.0000
vt 0.7396 0.3219 0.0000
vt 0.7415 0.3360 0.0000
vt 0.7569 0.3219 0.0000
vt 0.7582 0.3360 0.0000
vt 0.7808 0.3219 0.0000
vt 0.7813 0.3360 0.0000
vt 0.7898 0.3219 0.0000
vt 0.7896 0.3360 0.0000
vt 0.7950 0.3360 0.0000
vt 0.7975 0.3219 0.0000
vt 0.8139 0.3360 0.0000
vt 0.8138 0.3226 0.0000
vt 0.8347 0.9440 0.0000
vt 0.7919 0.9440 0.0000
vt 0.8347 0.9709 0.0000
vt 0.7862 0.9709 0.0000
vt 0.7858 0.9440 0.0000
vt 0.7754 0.9709 0.0000
vt 0.7803 0.9440 0.0000
vt 0.7423 0.9709 0.0000
vt 0.7408 0.9440 0.0000
vt 0.6943 0.9440 0.0000
vt 0.6972 0.9709 0.0000
vt 0.6845 0.9440 0.0000
vt 0.6700 0.9440 0.0000
vt 0.6488 0.9440 0.0000
vt 0.6488 0.9709 0.0000
vt 0.7141 0.3100 0.0000
vt 0.7303 0.3100 0.0000
vt 0.7354 0.3100 0.0000
vt 0.7407 0.3100 0.0000
vt 0.7566 0.3100 0.0000
vt 0.7786 0.3100 0.0000
vt 0.7889 0.3100 0.0000
vt 0.7968 0.3100 0.0000
vt 0.8138 0.3100 0.0000
vt 0.9533 0.3812 0.0000
vt 0.9788 0.3716 0.0000
vt 0.9533 0.3618 0.0000
vt 0.9788 0.3617 0.0000
vt 0.9788 0.3523 0.0000
vt 0.9533 0.3447 0.0000
vt 0.9298 0.3510 0.0000
vt 0.9298 0.3618 0.0000
vt 0.9298 0.3768 0.0000
# 51 texture coords

o patadel1_planta
g patadel1_planta
usemtl caballo_ts
s 1
f 1/1/1 2/2/2 3/3/3 
f 3/3/3 2/2/2 4/4/4 
f 2/2/2 5/5/5 4/4/4 
f 4/4/4 5/5/5 6/6/6 
f 6/6/6 5/5/5 7/7/7 
f 5/5/5 8/8/8 7/7/7 
f 7/7/7 8/8/8 9/9/9 
f 8/8/8 10/10/10 9/9/9 
f 9/9/9 10/10/10 11/11/11 
f 10/10/10 12/12/12 11/11/11 
f 11/11/11 12/12/12 13/13/13 
f 12/12/12 14/14/14 13/13/13 
f 14/14/14 15/15/15 13/13/13 
f 13/13/13 15/15/15 16/16/16 
f 15/15/15 1/17/1 16/16/16 
f 16/16/16 1/17/1 3/18/3 
f 17/19/17 18/20/18 19/21/19 
f 19/21/19 18/20/18 20/22/20 
f 18/20/18 21/23/21 20/22/20 
f 20/22/20 21/23/21 22/24/22 
f 21/23/21 23/25/23 22/24/22 
f 22/24/22 23/25/23 24/26/24 
f 23/25/23 25/27/25 24/26/24 
f 25/27/25 26/28/26 24/26/24 
f 24/26/24 26/28/26 27/29/27 
f 26/28/26 28/30/28 27/29/27 
f 28/30/28 29/31/29 27/29/27 
f 29/31/29 17/32/17 27/29/27 
f 27/29/27 17/32/17 19/33/19 
f 3/3/3 4/4/4 17/34/17 
f 17/34/17 4/4/4 18/35/18 
f 4/4/4 6/6/6 18/35/18 
f 18/35/18 6/6/6 21/36/21 
f 21/36/21 6/6/6 23/37/23 
f 6/6/6 7/7/7 23/37/23 
f 23/37/23 7/7/7 25/38/25 
f 7/7/7 9/9/9 25/38/25 
f 25/38/25 9/9/9 26/39/26 
f 9/9/9 11/11/11 26/39/26 
f 26/39/26 11/11/11 28/40/28 
f 11/11/11 13/13/13 28/40/28 
f 13/13/13 16/16/16 28/40/28 
f 28/40/28 16/16/16 29/41/29 
f 16/16/16 3/18/3 29/41/29 
f 29/41/29 3/18/3 17/42/17 
s off
f 10/43/30 8/44/30 30/45/30 
f 8/44/31 5/46/31 30/45/31 
f 5/46/32 2/47/32 30/45/32 
f 2/47/33 1/48/33 30/45/33 
f 1/48/34 15/49/34 30/45/34 
f 15/49/35 14/50/35 30/45/35 
f 14/50/36 12/51/36 30/45/36 
f 30/45/37 12/51/37 10/43/37 
# 53 faces

