# 3ds Max Wavefront OBJ Exporter v0.99 - (c)2007 guruware
# File Created: 16.11.2023 12:56:10

mtllib pataTras1_arriba_caballoTS.mtl

#
# object patatras1_arriba
#

v  -0.4653 -2.4421 0.4062
v  -0.2536 -2.7307 0.3644
v  -0.3472 -2.6654 0.5177
v  0.4100 -0.4688 0.1207
v  0.4676 -0.7827 0.1229
v  0.4144 -0.4796 0.0684
v  0.3832 -0.8089 -0.2942
v  -0.3434 -0.4465 0.0663
v  -0.3706 -0.8047 -0.2742
v  -0.3057 -1.6729 -0.1640
v  0.3438 -1.6610 -0.1963
v  -0.2966 -2.5637 -0.0285
v  0.3667 -2.5641 -0.0805
v  0.2802 -2.7458 0.3794
v  -0.4351 -1.5992 0.3001
v  -0.4778 -0.7175 0.1210
v  -0.3467 -0.4427 0.1254
v  -0.3325 -0.0819 0.0244
v  -0.4637 0.1250 0.2622
v  0.3010 -2.6966 0.5488
v  0.4620 -2.4741 0.3397
v  0.4312 -1.6062 0.2469
v  -0.3802 -1.5474 0.7706
v  0.3859 -0.6850 0.5921
v  -0.4086 -0.6812 0.5444
v  -0.3993 -2.4116 0.9257
v  0.3467 -2.4833 0.8983
v  0.3565 -1.5586 0.7849
v  0.4713 -0.4043 0.1856
v  0.4216 -0.1025 -0.2607
# 30 vertices

vn -0.9676 -0.2374 -0.0858
vn -0.5471 -0.6254 -0.5563
vn -0.7409 -0.6128 0.2747
vn 0.9660 0.2493 0.0683
vn 0.9983 0.0530 -0.0226
vn 0.8698 0.1719 -0.4624
vn 0.5521 0.2501 -0.7954
vn -0.7070 0.3687 -0.6034
vn -0.5594 0.2348 -0.7949
vn -0.6070 -0.1213 -0.7854
vn 0.6020 -0.1047 -0.7916
vn -0.5198 -0.5303 -0.6697
vn 0.5274 -0.5141 -0.6764
vn 0.6312 -0.6811 -0.3710
vn -0.9977 -0.0142 -0.0666
vn -0.9797 0.1838 -0.0805
vn -0.8471 0.5228 0.0952
vn -0.6767 -0.3466 -0.6496
vn -0.8565 -0.5070 -0.0966
vn 0.6373 -0.6090 0.4721
vn 0.9697 -0.2441 0.0037
vn 0.9997 -0.0038 -0.0223
vn -0.6594 0.1543 0.7357
vn 0.5636 0.4872 0.6670
vn -0.6074 0.4839 0.6299
vn -0.5770 -0.3183 0.7522
vn 0.5376 -0.3914 0.7468
vn 0.6390 0.1354 0.7572
vn -0.0197 -0.6995 0.7143
vn 0.0027 -0.9893 -0.1459
vn -0.0576 -0.2760 0.9594
vn -0.2256 -0.7384 -0.6356
# 32 vertex normals

vt 0.0375 0.3782 0.0000
vt 0.0885 0.3435 0.0000
vt 0.0375 0.3435 0.0000
vt 0.1578 0.6254 0.0000
vt 0.1801 0.5815 0.0000
vt 0.1315 0.6254 0.0000
vt 0.1315 0.5815 0.0000
vt 0.0885 0.6254 0.0000
vt 0.0885 0.5815 0.0000
vt 0.0885 0.4724 0.0000
vt 0.1315 0.4724 0.0000
vt 0.0885 0.3782 0.0000
vt 0.1315 0.3782 0.0000
vt 0.1315 0.3435 0.0000
vt 0.0375 0.4724 0.0000
vt 0.0375 0.5815 0.0000
vt 0.0628 0.6254 0.0000
vt 0.0885 0.6622 0.0000
vt 0.0628 0.6622 0.0000
vt 0.1801 0.3435 0.0000
vt 0.1801 0.3782 0.0000
vt 0.1801 0.4724 0.0000
vt 0.1578 0.6622 0.0000
vt 0.1315 0.6622 0.0000
# 24 texture coords

o patatras1_arriba
g patatras1_arriba
usemtl caballo_ts
s 1
f 1/1/1 2/2/2 3/3/3 
f 4/4/4 5/5/5 6/6/6 
f 5/5/5 7/7/7 6/6/6 
f 6/6/6 7/7/7 8/8/8 
f 8/8/8 7/7/7 9/9/9 
f 9/9/9 7/7/7 10/10/10 
f 7/7/7 11/11/11 10/10/10 
f 10/10/10 11/11/11 12/12/12 
f 11/11/11 13/13/13 12/12/12 
f 13/13/13 14/14/14 12/12/12 
f 14/14/14 2/2/2 12/12/12 
f 2/2/2 1/1/1 12/12/12 
f 12/12/12 1/1/1 10/10/10 
f 1/1/1 15/15/15 10/10/10 
f 10/10/10 15/15/15 9/9/9 
f 15/15/15 16/16/16 9/9/9 
f 9/9/9 16/16/16 8/8/8 
f 16/16/16 17/17/17 8/8/8 
f 8/8/8 17/17/17 18/18/18 
f 17/17/17 19/19/19 18/18/18 
f 20/20/20 14/14/14 21/21/21 
f 14/14/14 13/13/13 21/21/21 
f 13/13/13 11/11/11 21/21/21 
f 21/21/21 11/11/11 22/22/22 
f 22/22/22 11/11/11 5/5/5 
f 11/11/11 7/7/7 5/5/5 
f 23/11/23 24/9/24 25/7/25 
f 24/9/24 17/4/17 25/7/25 
f 17/4/17 16/5/16 25/7/25 
f 16/5/16 15/22/15 25/7/25 
f 25/7/25 15/22/15 23/11/23 
f 15/22/15 1/21/1 23/11/23 
f 23/11/23 1/21/1 26/13/26 
f 1/21/1 3/20/3 26/13/26 
f 3/20/3 27/12/27 26/13/26 
f 27/12/27 28/10/28 26/13/26 
f 26/13/26 28/10/28 23/11/23 
f 23/11/23 28/10/28 24/9/24 
f 28/10/28 22/15/22 24/9/24 
f 22/15/22 5/16/5 24/9/24 
f 5/16/5 4/17/4 24/9/24 
f 24/9/24 4/17/4 17/4/17 
f 4/17/29 29/19/30 17/4/31 
f 17/4/31 29/19/30 19/23/19 
f 29/23/30 4/4/4 30/24/32 
f 4/4/4 6/6/6 30/24/32 
f 30/24/32 6/6/6 18/18/18 
f 6/6/6 8/8/8 18/18/18 
f 3/20/3 20/3/20 27/12/27 
f 20/3/20 21/1/21 27/12/27 
f 27/12/27 21/1/21 28/10/28 
f 21/1/21 22/15/22 28/10/28 
# 52 faces

