# 3ds Max Wavefront OBJ Exporter v0.99 - (c)2007 guruware
# File Created: 16.11.2023 12:10:02

mtllib pataDel1_abajo_caballoTS.mtl

#
# object patadel1_abajo
#

v  0.1622 -0.0977 -0.0137
v  -0.1217 -0.0251 -0.0478
v  0.1872 -0.0369 -0.0829
v  0.3259 -0.1040 0.0952
v  0.3423 -0.0042 0.1014
v  0.2653 -0.6057 0.5850
v  0.4847 -0.4375 0.0117
v  0.5863 -1.3986 -0.2917
v  0.3952 -1.6813 0.5232
v  -0.4382 -1.6763 0.4863
v  -0.4676 -2.3410 0.4176
v  0.4372 -2.3634 0.4578
v  0.6587 -2.1891 -0.6929
v  0.4014 -2.5406 -0.6528
v  0.0963 -2.4918 0.2524
v  -0.3987 -2.5552 -0.6693
v  -0.6592 -2.1684 -0.7202
v  -0.5710 -1.3848 -0.2923
v  -0.3003 -0.6007 0.5888
v  -0.4855 -0.4144 0.0203
v  -0.3018 -0.0953 0.0588
v  -0.3058 0.0291 0.0542
v  -0.1238 -0.0839 -0.0463
v  0.2037 -0.2574 -0.2431
v  0.3470 -1.1612 -0.6824
v  0.3751 -2.1798 -1.3331
v  -0.2226 -1.1532 -0.7051
v  -0.1527 -0.2356 -0.2826
v  -0.2668 -2.1765 -1.3326
v  -0.1159 -2.5619 -1.1873
v  0.2159 -2.5597 -1.1914
# 31 vertices

vn 0.4080 0.1492 -0.9007
vn -0.3394 -0.5465 -0.7656
vn 0.3121 -0.8393 -0.4452
vn 0.7389 0.6292 0.2411
vn 0.6234 -0.7625 0.1731
vn 0.4781 0.2914 0.8285
vn 0.9542 0.2948 -0.0507
vn 0.9876 0.1456 -0.0590
vn 0.5988 -0.0110 0.8008
vn -0.6598 -0.0169 0.7512
vn -0.6010 -0.4995 0.6240
vn 0.5602 -0.4996 0.6607
vn 0.9687 -0.1877 -0.1625
vn 0.9875 -0.1278 -0.0918
vn 0.0205 -0.9386 0.3444
vn -0.9580 -0.1427 -0.2487
vn -0.9538 -0.1452 -0.2630
vn -0.9729 0.1806 -0.1446
vn -0.4946 0.2997 0.8158
vn -0.9443 0.3197 -0.0775
vn -0.7175 0.6736 0.1776
vn -0.6915 -0.7209 0.0452
vn -0.1924 0.5044 -0.8417
vn 0.4031 0.6002 -0.6908
vn 0.5429 0.4293 -0.7217
vn 0.5296 0.0056 -0.8482
vn -0.4315 0.4463 -0.7840
vn -0.2864 0.6103 -0.7385
vn -0.4807 0.0069 -0.8768
vn -0.4714 -0.1733 -0.8647
vn 0.4941 -0.1530 -0.8558
# 31 vertex normals

vt 0.1306 0.3080 0.0000
vt 0.0885 0.3435 0.0000
vt 0.1315 0.3435 0.0000
vt 0.1620 0.3080 0.0000
vt 0.1801 0.3435 0.0000
vt 0.0502 0.3080 0.0000
vt 0.0885 0.2556 0.0000
vt 0.0166 0.2556 0.0000
vt 0.0166 0.1464 0.0000
vt 0.0885 0.1464 0.0000
vt 0.1306 0.1464 0.0000
vt 0.1306 0.0523 0.0000
vt 0.0885 0.0523 0.0000
vt 0.0166 0.0523 0.0000
vt 0.0166 0.0176 0.0000
vt 0.1091 0.0176 0.0000
vt 0.1927 0.0176 0.0000
vt 0.1927 0.0523 0.0000
vt 0.1927 0.1464 0.0000
vt 0.1306 0.2556 0.0000
vt 0.1927 0.2556 0.0000
vt 0.0375 0.3435 0.0000
vt 0.0885 0.3080 0.0000
vt 0.0885 0.0176 0.0000
vt 0.1306 0.0176 0.0000
# 25 texture coords

o patadel1_abajo
g patadel1_abajo
usemtl caballo_ts
s 1
f 1/1/1 2/2/2 3/3/3 
f 4/4/4 1/1/1 5/5/5 
f 1/1/1 3/3/3 5/5/5 
f 4/6/4 6/7/6 7/8/7 
f 7/8/7 6/7/6 8/9/8 
f 8/9/8 6/7/6 9/10/9 
f 6/7/6 10/11/10 9/10/9 
f 10/11/10 11/12/11 9/10/9 
f 11/12/11 12/13/12 9/10/9 
f 9/10/9 12/13/12 8/9/8 
f 8/9/8 12/13/12 13/14/13 
f 13/14/13 12/13/12 14/15/14 
f 14/15/14 12/13/12 15/16/15 
f 12/13/12 11/12/11 15/16/15 
f 15/16/15 11/12/11 16/17/16 
f 16/17/16 11/12/11 17/18/17 
f 17/18/17 11/12/11 18/19/18 
f 11/12/11 10/11/10 18/19/18 
f 10/11/10 19/20/19 18/19/18 
f 18/19/18 19/20/19 20/21/20 
f 19/20/19 21/4/21 20/21/20 
f 5/22/5 22/5/22 4/6/4 
f 22/5/22 21/4/21 4/6/4 
f 4/6/4 21/4/21 6/7/6 
f 21/4/21 19/20/19 6/7/6 
f 6/7/6 19/20/19 10/11/10 
f 22/22/22 2/2/2 21/6/21 
f 21/6/21 2/2/2 23/23/23 
f 2/2/2 1/1/1 23/23/23 
f 23/23/23 1/1/1 24/20/24 
f 1/1/1 4/4/4 24/20/24 
f 4/4/4 7/21/7 24/20/24 
f 24/20/24 7/21/7 25/11/25 
f 7/21/7 8/19/8 25/11/25 
f 8/19/8 13/18/13 25/11/25 
f 13/18/13 26/12/26 25/11/25 
f 26/12/26 27/10/27 25/11/25 
f 25/11/25 27/10/27 24/20/24 
f 27/10/27 28/7/28 24/20/24 
f 24/20/24 28/7/28 23/23/23 
f 23/23/23 28/7/28 21/6/21 
f 21/6/21 28/7/28 20/8/20 
f 28/7/28 27/10/27 20/8/20 
f 20/8/20 27/10/27 18/9/18 
f 18/9/18 27/10/27 17/14/17 
f 27/10/27 29/13/29 17/14/17 
f 17/14/17 29/13/29 16/15/16 
f 16/15/16 29/13/29 30/24/30 
f 29/13/29 31/25/31 30/24/30 
f 14/17/14 31/25/31 13/18/13 
f 13/18/13 31/25/31 26/12/26 
f 31/25/31 29/13/29 26/12/26 
f 26/12/26 29/13/29 27/10/27 
# 53 faces

