# 3ds Max Wavefront OBJ Exporter v0.99 - (c)2007 guruware
# File Created: 16.11.2023 07:03:29

mtllib pataTras1_planta_caballoTS PIVOTE ARRIBA.mtl

#
# object patatras1_planta
#

v  0.9401 -1.2956 0.3675
v  0.6720 -1.2963 1.3108
v  0.0085 -1.2959 0.3296
v  -0.0356 -1.2963 1.8344
v  -0.8157 -1.2962 1.2305
v  -0.9563 -1.2962 0.2904
v  0.5038 -0.2243 0.2728
v  0.3674 -0.0085 0.1918
v  0.3692 -0.1367 0.9211
v  -0.1268 0.0075 0.6494
v  -0.0203 -0.1095 1.1107
v  -0.4262 -0.1339 0.8687
v  -0.5817 -0.2276 0.1774
v  -0.4617 -0.0169 0.0686
v  -0.3686 -0.3008 -0.7039
v  -0.0865 -0.0352 -0.7093
v  0.0574 -0.3130 -0.9280
v  0.4367 -0.2960 -0.7333
v  -0.6559 -1.2953 -0.5304
v  0.0465 -1.2952 -0.9280
v  0.7180 -1.2952 -0.5236
v  0.7954 -0.6868 0.3517
v  0.6366 -0.7224 -0.6444
v  0.0594 -0.7310 -0.9590
v  -0.5604 -0.7249 -0.6325
v  -0.8424 -0.6887 0.2612
v  -0.6798 -0.6419 1.1177
v  -0.0284 -0.6297 1.5619
v  0.5742 -0.6434 1.1874
# 29 vertices

vn 0.0003 -1.0000 -0.0006
vn -0.0002 -1.0000 -0.0003
vn 0.0002 -1.0000 -0.0002
vn 0.0003 -1.0000 -0.0001
vn 0.8505 0.5260 -0.0042
vn 0.6974 0.7166 -0.0105
vn 0.5470 0.7486 0.3746
vn -0.1613 0.9707 0.1783
vn -0.0100 0.8076 0.5896
vn -0.5736 0.7518 0.3251
vn -0.8417 0.5397 -0.0141
vn -0.8410 0.5410 -0.0056
vn -0.6860 0.3849 -0.6174
vn -0.1562 0.7832 -0.6018
vn 0.0225 0.3394 -0.9404
vn 0.6632 0.5036 -0.5536
vn 0.0003 -1.0000 -0.0005
vn -0.6301 -0.6214 -0.4657
vn 0.0002 -1.0000 -0.0005
vn 0.0027 -0.6362 -0.7716
vn 0.6733 -0.6161 -0.4086
vn 0.9333 0.3588 0.0126
vn 0.8212 0.1541 -0.5494
vn 0.0081 0.0049 -1.0000
vn -0.7715 0.1444 -0.6196
vn -0.9444 0.3208 -0.0720
vn -0.7705 0.4041 0.4930
vn -0.0139 0.4830 0.8755
vn 0.7404 0.3862 0.5501
vn 0.9747 0.2234 0.0112
vn -0.9788 0.1880 -0.0811
vn -0.8183 0.2734 0.5057
vn -0.0117 0.3785 0.9255
vn 0.7789 0.2469 0.5765
# 34 vertex normals

vt 0.9535 0.3449 0.0000
vt 0.9300 0.3512 0.0000
vt 0.9535 0.3620 0.0000
vt 0.9300 0.3620 0.0000
vt 0.9300 0.3767 0.0000
vt 0.9535 0.3814 0.0000
vt 0.6488 0.9440 0.0000
vt 0.6488 0.9709 0.0000
vt 0.6655 0.9440 0.0000
vt 0.7081 0.9709 0.0000
vt 0.6797 0.9440 0.0000
vt 0.6951 0.9440 0.0000
vt 0.7316 0.9440 0.0000
vt 0.7366 0.9709 0.0000
vt 0.7765 0.9440 0.0000
vt 0.7847 0.9709 0.0000
vt 0.7923 0.9440 0.0000
vt 0.8090 0.9440 0.0000
vt 0.8347 0.9709 0.0000
vt 0.8347 0.9440 0.0000
vt 0.9790 0.3718 0.0000
vt 0.9790 0.3619 0.0000
vt 0.9790 0.3524 0.0000
vt 0.7141 0.3226 0.0000
vt 0.7257 0.3219 0.0000
vt 0.7141 0.3100 0.0000
vt 0.7289 0.3100 0.0000
vt 0.7330 0.3219 0.0000
vt 0.7333 0.3100 0.0000
vt 0.7407 0.3100 0.0000
vt 0.7430 0.3219 0.0000
vt 0.7590 0.3100 0.0000
vt 0.7602 0.3219 0.0000
vt 0.7759 0.3100 0.0000
vt 0.7770 0.3219 0.0000
vt 0.7876 0.3100 0.0000
vt 0.7886 0.3219 0.0000
vt 0.7982 0.3219 0.0000
vt 0.7981 0.3100 0.0000
vt 0.8139 0.3226 0.0000
vt 0.8139 0.3100 0.0000
vt 0.7141 0.3360 0.0000
vt 0.7270 0.3360 0.0000
vt 0.7338 0.3360 0.0000
vt 0.7450 0.3360 0.0000
vt 0.7604 0.3360 0.0000
vt 0.7764 0.3360 0.0000
vt 0.7878 0.3360 0.0000
vt 0.7963 0.3360 0.0000
vt 0.8142 0.3360 0.0000
# 50 texture coords

o patatras1_planta
g patatras1_planta
usemtl caballo_ts
s off
f 1/1/1 2/2/1 3/3/1 
f 2/2/2 4/4/2 3/3/2 
f 4/4/3 5/5/3 3/3/3 
f 5/5/4 6/6/4 3/3/4 
s 1
f 7/7/5 8/8/6 9/9/7 
f 8/8/6 10/10/8 9/9/7 
f 9/9/7 10/10/8 11/11/9 
f 11/11/9 10/10/8 12/12/10 
f 12/12/10 10/10/8 13/13/11 
f 10/10/8 14/14/12 13/13/11 
f 13/13/11 14/14/12 15/15/13 
f 14/14/12 16/16/14 15/15/13 
f 15/15/13 16/16/14 17/17/15 
f 17/17/15 16/16/14 18/18/16 
f 16/16/14 8/19/6 18/18/16 
f 18/18/16 8/19/6 7/20/5 
f 6/6/17 19/21/18 3/3/19 
f 19/21/18 20/22/20 3/3/19 
f 20/22/20 21/23/21 3/3/19 
f 3/3/19 21/23/21 1/1/1 
f 22/24/22 23/25/23 7/26/5 
f 7/26/5 23/25/23 18/27/16 
f 23/25/23 24/28/24 18/27/16 
f 18/27/16 24/28/24 17/29/15 
f 17/29/15 24/28/24 15/30/13 
f 24/28/24 25/31/25 15/30/13 
f 15/30/13 25/31/25 13/32/11 
f 25/31/25 26/33/26 13/32/11 
f 13/32/11 26/33/26 12/34/10 
f 26/33/26 27/35/27 12/34/10 
f 12/34/10 27/35/27 11/36/9 
f 27/35/27 28/37/28 11/36/9 
f 28/37/28 29/38/29 11/36/9 
f 11/36/9 29/38/29 9/39/7 
f 29/38/29 22/40/22 9/39/7 
f 9/39/7 22/40/22 7/41/5 
f 1/42/30 21/43/21 22/24/22 
f 22/24/22 21/43/21 23/25/23 
f 21/43/21 20/44/20 23/25/23 
f 23/25/23 20/44/20 24/28/24 
f 24/28/24 20/44/20 25/31/25 
f 20/44/20 19/45/18 25/31/25 
f 25/31/25 19/45/18 26/33/26 
f 19/45/18 6/46/31 26/33/26 
f 26/33/26 6/46/31 27/35/27 
f 6/46/31 5/47/32 27/35/27 
f 27/35/27 5/47/32 28/37/28 
f 5/47/32 4/48/33 28/37/28 
f 4/48/33 2/49/34 28/37/28 
f 28/37/28 2/49/34 29/38/29 
f 2/49/34 1/50/30 29/38/29 
f 29/38/29 1/50/30 22/40/22 
# 52 faces

