# 3ds Max Wavefront OBJ Exporter v0.99 - (c)2007 guruware
# File Created: 16.11.2023 12:31:22

mtllib pataDel2_arriba_caballoTS.mtl

#
# object patadel2_arriba
#

v  -0.3290 -2.5912 0.5552
v  -0.4455 -2.4195 0.4561
v  -0.1739 -2.6239 0.3709
v  -0.2781 -2.4338 -0.0269
v  -0.4741 -1.4131 0.3044
v  -0.2901 -1.4968 -0.2089
v  0.2786 -0.0237 -0.0736
v  0.2925 0.0254 0.0653
v  0.3353 -0.2185 0.0912
v  0.3386 -0.2147 0.1503
v  -0.4181 -0.2408 0.1456
v  -0.4323 -0.1707 0.1355
v  -0.4653 -0.5040 0.1664
v  -0.3940 -0.4569 0.6323
v  -0.3938 -1.3676 0.8053
v  0.3997 -0.4821 0.6196
v  -0.4225 -0.2516 0.0933
v  -0.4400 -0.1999 0.0207
v  0.4602 -0.5386 0.0488
v  0.4458 -1.4285 0.1967
v  0.4020 -1.3564 0.7932
v  0.3506 -2.3642 0.9697
v  -0.3262 -2.3983 0.9615
v  -0.3037 -0.5603 -0.2474
v  0.2696 -0.6284 -0.2600
v  0.2128 -1.5150 -0.2337
v  0.1673 -2.4358 -0.0213
v  0.1350 -2.6121 0.4060
v  0.3191 -2.5579 0.5080
v  0.4141 -2.3884 0.3752
# 30 vertices

vn -0.6234 -0.7625 0.1731
vn -0.9325 -0.3532 -0.0751
vn -0.3121 -0.8393 -0.4452
vn -0.4995 -0.5283 -0.6865
vn -0.9956 -0.0206 -0.0910
vn -0.5807 -0.1051 -0.8073
vn 0.6522 -0.7041 -0.2809
vn 0.8070 -0.3829 0.4495
vn 0.8124 0.2513 -0.5261
vn 0.7057 0.5917 0.3897
vn -0.7718 0.3628 0.5222
vn -0.4472 -0.6891 0.5702
vn -0.9924 0.0606 -0.1075
vn -0.5576 0.4943 0.6669
vn -0.6458 0.1209 0.7538
vn 0.6085 0.4656 0.6426
vn -0.9094 -0.0829 -0.4076
vn -0.3077 -0.9513 -0.0159
vn 0.9493 0.1674 -0.2661
vn 0.9769 -0.0584 -0.2055
vn 0.6873 0.1209 0.7162
vn 0.5549 -0.3965 0.7313
vn -0.4946 -0.4219 0.7598
vn -0.4879 0.2864 -0.8246
vn 0.4476 0.2209 -0.8665
vn 0.4768 -0.1391 -0.8679
vn 0.4211 -0.5588 -0.7144
vn 0.3394 -0.5465 -0.7656
vn 0.6915 -0.7209 0.0452
vn 0.9059 -0.3645 -0.2156
# 30 vertex normals

vt 0.1801 0.3435 0.0000
vt 0.1801 0.3782 0.0000
vt 0.1315 0.3435 0.0000
vt 0.1315 0.3782 0.0000
vt 0.1801 0.4724 0.0000
vt 0.1315 0.4724 0.0000
vt 0.1578 0.6622 0.0000
vt 0.1315 0.6622 0.0000
vt 0.1578 0.6254 0.0000
vt 0.1315 0.6254 0.0000
vt 0.0885 0.6254 0.0000
vt 0.0885 0.6622 0.0000
vt 0.0375 0.5815 0.0000
vt 0.0375 0.4724 0.0000
vt 0.0885 0.5815 0.0000
vt 0.0885 0.4724 0.0000
vt 0.1315 0.5815 0.0000
vt 0.0628 0.6254 0.0000
vt 0.0628 0.6622 0.0000
vt 0.1801 0.5815 0.0000
vt 0.0885 0.3782 0.0000
vt 0.0375 0.3435 0.0000
vt 0.0375 0.3782 0.0000
vt 0.0885 0.3435 0.0000
# 24 texture coords

o patadel2_arriba
g patadel2_arriba
usemtl caballo_ts
s 1
f 1/1/1 2/2/2 3/3/3 
f 3/3/3 2/2/2 4/4/4 
f 2/2/2 5/5/5 4/4/4 
f 4/4/4 5/5/5 6/6/6 
f 7/7/7 8/8/8 9/9/9 
f 9/9/9 8/8/8 10/10/10 
f 10/10/10 8/8/8 11/11/11 
f 8/8/8 12/12/12 11/11/11 
f 13/13/13 5/14/5 14/15/14 
f 5/14/5 15/16/15 14/15/14 
f 15/16/15 16/17/16 14/15/14 
f 16/17/16 10/10/10 14/15/14 
f 10/10/10 11/11/11 14/15/14 
f 14/15/14 11/11/11 13/13/13 
f 13/13/13 11/11/11 17/18/17 
f 11/11/11 12/12/12 17/18/17 
f 17/18/17 12/12/12 18/19/18 
f 9/9/9 10/10/10 19/20/19 
f 10/10/10 16/17/16 19/20/19 
f 19/20/19 16/17/16 20/5/20 
f 20/5/20 16/17/16 21/6/21 
f 16/17/16 15/16/15 21/6/21 
f 21/6/21 15/16/15 22/4/22 
f 15/16/15 23/21/23 22/4/22 
f 1/22/1 23/21/23 2/23/2 
f 23/21/23 15/16/15 2/23/2 
f 2/23/2 15/16/15 5/14/5 
f 18/7/18 7/19/7 17/9/17 
f 7/19/7 9/18/9 17/9/17 
f 9/18/9 24/17/24 17/9/17 
f 17/9/17 24/17/24 13/20/13 
f 13/20/13 24/17/24 5/5/5 
f 5/5/5 24/17/24 6/6/6 
f 24/17/24 25/15/25 6/6/6 
f 25/15/25 26/16/26 6/6/6 
f 26/16/26 27/21/27 6/6/6 
f 6/6/6 27/21/27 4/4/4 
f 4/4/4 27/21/27 3/3/3 
f 27/21/27 28/24/28 3/3/3 
f 29/22/29 28/24/28 30/23/30 
f 28/24/28 27/21/27 30/23/30 
f 30/23/30 27/21/27 20/14/20 
f 27/21/27 26/16/26 20/14/20 
f 26/16/26 25/15/25 20/14/20 
f 20/14/20 25/15/25 19/13/19 
f 19/13/19 25/15/25 9/18/9 
f 25/15/25 24/17/24 9/18/9 
f 20/5/20 21/6/21 30/2/30 
f 21/6/21 22/4/22 30/2/30 
f 30/2/30 22/4/22 29/1/29 
f 22/4/22 23/21/23 29/1/29 
f 23/21/23 1/22/1 29/1/29 
# 52 faces

