# 3ds Max Wavefront OBJ Exporter v0.99 - (c)2007 guruware
# File Created: 16.11.2023 06:58:52

mtllib pataTras1_abajo_caballoTS PIVOTE ARRIBA.mtl

#
# object patatras1_abajo
#

v  -0.3253 0.0588 0.0642
v  -0.2317 -0.0065 -0.0891
v  -0.2676 -0.1906 0.0707
v  -0.2431 -0.1833 -0.0239
v  -0.5244 -0.5874 0.1630
v  -0.1952 -0.3295 -0.3149
v  -0.4134 -1.3004 -0.7768
v  -0.6635 -1.5742 -0.1278
v  -0.7121 -2.2558 -0.4211
v  -0.4667 -2.2585 -1.4010
v  -0.4392 -2.6344 -0.4406
v  -0.0640 -2.6527 -1.2185
v  0.5404 -2.2550 -1.4114
v  0.3899 -2.6260 -0.3174
v  0.6912 -2.3072 -0.3417
v  0.5182 -1.3047 -0.7782
v  0.6428 -1.6013 -0.0972
v  0.5022 -0.5878 0.1461
v  0.2316 -0.3609 -0.2657
v  0.2734 -0.1880 -0.0120
v  0.3021 -0.0216 -0.0741
v  0.2729 -0.1819 0.0611
v  0.3229 0.0276 0.0953
v  -0.2911 -0.6469 0.5730
v  -0.4785 -1.7619 0.4945
v  -0.4851 -2.4326 0.3601
v  -0.1043 -2.6100 0.1402
v  0.4583 -2.4572 0.4268
v  0.4375 -1.7734 0.5751
v  0.2548 -0.6327 0.5466
# 30 vertices

vn -0.7409 -0.6128 0.2747
vn -0.5471 -0.6254 -0.5563
vn -0.7368 0.4815 0.4745
vn -0.7197 0.3336 -0.6088
vn -0.9315 0.3327 0.1471
vn -0.3374 0.6588 -0.6725
vn -0.5874 0.4426 -0.6775
vn -0.9931 0.1131 0.0316
vn -0.9739 -0.2213 -0.0506
vn -0.5945 -0.0934 -0.7986
vn -0.7231 -0.6894 -0.0444
vn -0.0664 -0.8035 -0.5915
vn 0.6113 -0.1484 -0.7773
vn 0.5864 -0.8100 0.0003
vn 0.9486 -0.3162 0.0095
vn 0.6590 0.4315 -0.6160
vn 0.9895 0.0885 0.1140
vn 0.9300 0.3172 0.1855
vn 0.4492 0.6186 -0.6447
vn 0.7932 0.2616 -0.5499
vn 0.6312 -0.6811 -0.3710
vn 0.7335 0.3212 0.5990
vn 0.6373 -0.6090 0.4721
vn -0.4263 0.3475 0.8352
vn -0.6354 -0.0543 0.7703
vn -0.5809 -0.5208 0.6256
vn -0.0888 -0.9258 0.3675
vn 0.5164 -0.5556 0.6516
vn 0.5596 -0.0447 0.8276
vn 0.4356 0.3677 0.8216
# 30 vertex normals

vt 0.0375 0.3435 0.0000
vt 0.0885 0.3435 0.0000
vt 0.0502 0.3080 0.0000
vt 0.0885 0.3080 0.0000
vt 0.0166 0.2556 0.0000
vt 0.0885 0.2556 0.0000
vt 0.0885 0.1464 0.0000
vt 0.0166 0.1464 0.0000
vt 0.0166 0.0523 0.0000
vt 0.0885 0.0523 0.0000
vt 0.0166 0.0176 0.0000
vt 0.1091 0.0176 0.0000
vt 0.1306 0.0523 0.0000
vt 0.1927 0.0176 0.0000
vt 0.1927 0.0523 0.0000
vt 0.1306 0.1464 0.0000
vt 0.1927 0.1464 0.0000
vt 0.1927 0.2556 0.0000
vt 0.1306 0.2556 0.0000
vt 0.1306 0.3080 0.0000
vt 0.1315 0.3435 0.0000
vt 0.1620 0.3080 0.0000
vt 0.1801 0.3435 0.0000
vt 0.1092 0.0176 0.0000
# 24 texture coords

o patatras1_abajo
g patatras1_abajo
usemtl caballo_ts
s 1
f 1/1/1 2/2/2 3/3/3 
f 2/2/2 4/4/4 3/3/3 
f 3/3/3 4/4/4 5/5/5 
f 4/4/4 6/6/6 5/5/5 
f 6/6/6 7/7/7 5/5/5 
f 5/5/5 7/7/7 8/8/8 
f 8/8/8 7/7/7 9/9/9 
f 7/7/7 10/10/10 9/9/9 
f 9/9/9 10/10/10 11/11/11 
f 11/11/11 10/10/10 12/12/12 
f 10/10/10 13/13/13 12/12/12 
f 12/12/12 13/13/13 14/14/14 
f 14/14/14 13/13/13 15/15/15 
f 13/13/13 16/16/16 15/15/15 
f 15/15/15 16/16/16 17/17/17 
f 16/16/16 18/18/18 17/17/17 
f 7/7/7 6/6/6 19/19/19 
f 6/6/6 4/4/4 19/19/19 
f 19/19/19 4/4/4 20/20/20 
f 4/4/4 2/2/2 20/20/20 
f 20/20/20 2/2/2 21/21/21 
f 10/10/10 7/7/7 13/13/13 
f 13/13/13 7/7/7 16/16/16 
f 7/7/7 19/19/19 16/16/16 
f 16/16/16 19/19/19 18/18/18 
f 19/19/19 20/20/20 18/18/18 
f 18/18/18 20/20/20 22/22/22 
f 20/20/20 21/21/21 22/22/22 
f 22/22/22 21/21/21 23/23/23 
f 3/22/3 5/18/5 24/19/24 
f 5/18/5 8/17/8 24/19/24 
f 24/19/24 8/17/8 25/16/25 
f 25/16/25 8/17/8 26/13/26 
f 8/17/8 9/15/9 26/13/26 
f 9/15/9 11/14/11 26/13/26 
f 11/14/11 27/24/27 26/13/26 
f 27/24/27 28/10/28 26/13/26 
f 28/10/28 29/7/29 26/13/26 
f 26/13/26 29/7/29 25/16/25 
f 25/16/25 29/7/29 24/19/24 
f 29/7/29 30/6/30 24/19/24 
f 24/19/24 30/6/30 3/22/3 
f 30/6/30 22/3/22 3/22/3 
f 22/3/22 23/1/23 3/22/3 
f 3/22/3 23/1/23 1/23/1 
f 22/3/22 30/6/30 18/5/18 
f 18/5/18 30/6/30 17/8/17 
f 30/6/30 29/7/29 17/8/17 
f 29/7/29 28/10/28 17/8/17 
f 17/8/17 28/10/28 15/9/15 
f 15/9/15 28/10/28 14/11/14 
f 28/10/28 27/24/27 14/11/14 
# 52 faces

